<svg width="1280" height="720" xmlns="http://www.w3.org/2000/svg" xmlns:xlink="http://www.w3.org/1999/xlink" overflow="hidden"><defs><clipPath id="clip0"><rect x="0" y="0" width="1280" height="720"/></clipPath><clipPath id="clip1"><rect x="640" y="106" width="196" height="180"/></clipPath><clipPath id="clip2"><rect x="835" y="106" width="143" height="180"/></clipPath><clipPath id="clip3"><rect x="977" y="106" width="139" height="180"/></clipPath><clipPath id="clip4"><rect x="1115" y="106" width="109" height="180"/></clipPath><clipPath id="clip5"><rect x="640" y="136" width="196" height="181"/></clipPath><clipPath id="clip6"><rect x="640" y="90" width="196" height="360"/></clipPath><clipPath id="clip7"><rect x="640" y="90" width="196" height="360"/></clipPath><clipPath id="clip8"><rect x="835" y="167" width="143" height="180"/></clipPath><clipPath id="clip9"><rect x="977" y="167" width="139" height="180"/></clipPath><clipPath id="clip10"><rect x="640" y="224" width="196" height="180"/></clipPath><clipPath id="clip11"><rect x="1115" y="224" width="109" height="180"/></clipPath><clipPath id="clip12"><rect x="835" y="254" width="143" height="181"/></clipPath><clipPath id="clip13"><rect x="977" y="254" width="139" height="181"/></clipPath><clipPath id="clip14"><rect x="835" y="285" width="143" height="180"/></clipPath><clipPath id="clip15"><rect x="977" y="285" width="139" height="180"/></clipPath><clipPath id="clip16"><rect x="640" y="316" width="196" height="180"/></clipPath><clipPath id="clip17"><rect x="1115" y="316" width="109" height="180"/></clipPath><clipPath id="clip18"><rect x="835" y="347" width="143" height="180"/></clipPath><clipPath id="clip19"><rect x="977" y="347" width="139" height="180"/></clipPath><clipPath id="clip20"><rect x="640" y="301" width="196" height="359"/></clipPath><clipPath id="clip21"><rect x="835" y="378" width="143" height="180"/></clipPath><clipPath id="clip22"><rect x="977" y="378" width="139" height="180"/></clipPath><clipPath id="clip23"><rect x="835" y="434" width="143" height="180"/></clipPath><clipPath id="clip24"><rect x="977" y="434" width="139" height="180"/></clipPath></defs><g clip-path="url(#clip0)"><rect x="0" y="0" width="1280" height="720" fill="#FFFFFF"/><path d="M16.8945 16.5466 16.8945 703.453 1263.11 703.453 1263.11 16.5466ZM0 0 1280 0 1280 720 0 720Z" fill="#E8E2E3" fill-rule="evenodd"/><rect x="17" y="17" width="1246" height="686" fill="#E8E2E3"/><rect x="0" y="0" width="12.1196" height="12.1196" stroke="#332441" stroke-width="1.66667" stroke-miterlimit="8" fill="none" transform="matrix(-0.720314 0.693648 0.693648 0.720314 640.162 442.693)"/><path d="M649 451 685.969 451" stroke="#332441" stroke-width="1.66667" stroke-miterlimit="8" fill="none" fill-rule="evenodd"/><path d="M594 451 630.969 451" stroke="#332441" stroke-width="1.66667" stroke-miterlimit="8" fill="none" fill-rule="evenodd"/><rect x="0" y="0" width="1280" height="720" fill="#FFFFFF"/><path d="M108 108 532 108 532 616 319.243 544.235 108 616 108 108Z" fill="#E8E2E3" fill-rule="evenodd"/><rect x="0" y="0" width="12.1196" height="12.1196" stroke="#332441" stroke-width="1.66667" stroke-miterlimit="8" fill="none" transform="matrix(-0.720314 0.693648 0.693648 0.720314 320.162 475.198)"/><path d="M329 484 365.969 484" stroke="#332441" stroke-width="1.66667" stroke-miterlimit="8" fill="none" fill-rule="evenodd"/><path d="M274 484 310.969 484" stroke="#332441" stroke-width="1.66667" stroke-miterlimit="8" fill="none" fill-rule="evenodd"/><text fill="#332441" font-family="Bembo,Bembo_MSFontService,sans-serif" font-weight="400" font-size="29" transform="translate(168.3 270)">DEMOGRAPHICS <tspan font-size="29" x="126.667" y="39">OF </tspan><tspan font-size="29" x="16.8133" y="77">PARTICIPANTS</tspan></text><path d="M640 182.834 835.38 182.834 835.38 213.645 640 213.645Z" fill="#000000" fill-rule="evenodd" fill-opacity="0.2"/><path d="M835.38 182.834 977.046 182.834 977.046 213.645 835.38 213.645Z" fill="#000000" fill-rule="evenodd" fill-opacity="0.2"/><path d="M977.046 182.834 1115.14 182.834 1115.14 213.645 977.046 213.645Z" fill="#000000" fill-rule="evenodd" fill-opacity="0.2"/><path d="M1115.14 182.834 1223.6 182.834 1223.6 213.645 1115.14 213.645Z" fill="#000000" fill-rule="evenodd" fill-opacity="0.2"/><path d="M640 244.457 835.38 244.457 835.38 300.945 640 300.945Z" fill="#000000" fill-rule="evenodd" fill-opacity="0.2"/><path d="M835.38 244.457 977.046 244.457 977.046 300.945 835.38 300.945Z" fill="#000000" fill-rule="evenodd" fill-opacity="0.2"/><path d="M977.046 244.457 1115.14 244.457 1115.14 300.945 977.046 300.945Z" fill="#000000" fill-rule="evenodd" fill-opacity="0.2"/><path d="M1115.14 244.457 1223.6 244.457 1223.6 300.945 1115.14 300.945Z" fill="#000000" fill-rule="evenodd" fill-opacity="0.2"/><path d="M640 331.756 835.38 331.756 835.38 362.568 640 362.568Z" fill="#000000" fill-rule="evenodd" fill-opacity="0.2"/><path d="M835.38 331.756 977.046 331.756 977.046 362.568 835.38 362.568Z" fill="#000000" fill-rule="evenodd" fill-opacity="0.2"/><path d="M977.046 331.756 1115.14 331.756 1115.14 362.568 977.046 362.568Z" fill="#000000" fill-rule="evenodd" fill-opacity="0.2"/><path d="M1115.14 331.756 1223.6 331.756 1223.6 362.568 1115.14 362.568Z" fill="#000000" fill-rule="evenodd" fill-opacity="0.2"/><path d="M640 393.379 835.38 393.379 835.38 424.191 640 424.191Z" fill="#000000" fill-rule="evenodd" fill-opacity="0.2"/><path d="M835.38 393.379 977.046 393.379 977.046 424.191 835.38 424.191Z" fill="#000000" fill-rule="evenodd" fill-opacity="0.2"/><path d="M977.046 393.379 1115.14 393.379 1115.14 424.191 977.046 424.191Z" fill="#000000" fill-rule="evenodd" fill-opacity="0.2"/><path d="M1115.14 393.379 1223.6 393.379 1223.6 424.191 1115.14 424.191Z" fill="#000000" fill-rule="evenodd" fill-opacity="0.2"/><path d="M640 455.003 835.38 455.003 835.38 511.49 640 511.49Z" fill="#000000" fill-rule="evenodd" fill-opacity="0.2"/><path d="M835.38 455.003 977.046 455.003 977.046 511.49 835.38 511.49Z" fill="#000000" fill-rule="evenodd" fill-opacity="0.2"/><path d="M977.046 455.003 1115.14 455.003 1115.14 511.49 977.046 511.49Z" fill="#000000" fill-rule="evenodd" fill-opacity="0.2"/><path d="M1115.14 455.003 1223.6 455.003 1223.6 511.49 1115.14 511.49Z" fill="#000000" fill-rule="evenodd" fill-opacity="0.2"/><path d="M640 182.834 1223.6 182.834" stroke="#000000" stroke-width="1.33333" stroke-linejoin="round" stroke-miterlimit="10" fill="none" fill-rule="evenodd"/><path d="M640 152.022 1223.6 152.022" stroke="#000000" stroke-width="1.33333" stroke-linejoin="round" stroke-miterlimit="10" fill="none" fill-rule="evenodd"/><path d="M640 567.978 1223.6 567.978" stroke="#000000" stroke-width="1.33333" stroke-linejoin="round" stroke-miterlimit="10" fill="none" fill-rule="evenodd"/><text font-family="Bembo,Bembo_MSFontService,sans-serif" font-style="italic" font-weight="700" font-size="21" transform="translate(872.917 172)">Demographics</text><g clip-path="url(#clip1)"><text font-family="Bembo,Bembo_MSFontService,sans-serif" font-style="italic" font-weight="700" font-size="21" transform="translate(649.629 203)">Characteristic</text></g><g clip-path="url(#clip2)"><text font-family="Bembo,Bembo_MSFontService,sans-serif" font-weight="400" font-size="21" transform="translate(845.009 203)">Control (%)</text></g><g clip-path="url(#clip3)"><text font-family="Bembo,Bembo_MSFontService,sans-serif" font-weight="400" font-size="21" transform="translate(986.674 203)">Case (%)</text></g><g clip-path="url(#clip4)"><text font-family="Bembo,Bembo_MSFontService,sans-serif" font-weight="400" font-size="21" transform="translate(1124.77 203)">P Value</text></g><g clip-path="url(#clip5)"><text font-family="Bembo,Bembo_MSFontService,sans-serif" font-style="italic" font-weight="700" font-size="21" transform="translate(649.629 234)">Age(years)</text></g><text font-family="Bembo,Bembo_MSFontService,sans-serif" font-style="italic" font-weight="700" font-size="21" transform="translate(1130.77 234)">0.93</text><g clip-path="url(#clip6)"><text font-family="Bembo,Bembo_MSFontService,sans-serif" font-style="italic" font-weight="700" font-size="21" transform="translate(649.629 264)">Mean (Standard </text></g><g clip-path="url(#clip7)"><text font-family="Bembo,Bembo_MSFontService,sans-serif" font-style="italic" font-weight="700" font-size="21" transform="translate(649.629 290)">Deviation)</text></g><g clip-path="url(#clip8)"><text font-family="Bembo,Bembo_MSFontService,sans-serif" font-weight="400" font-size="21" transform="translate(845.009 264)">65.8(8.5)</text></g><g clip-path="url(#clip9)"><text font-family="Bembo,Bembo_MSFontService,sans-serif" font-weight="400" font-size="21" transform="translate(986.674 264)">66.0(10.7)</text></g><g clip-path="url(#clip10)"><text font-family="Bembo,Bembo_MSFontService,sans-serif" font-style="italic" font-weight="700" font-size="21" transform="translate(649.629 321)">Sex</text></g><g clip-path="url(#clip11)"><text font-family="Bembo,Bembo_MSFontService,sans-serif" font-style="italic" font-weight="700" font-size="21" transform="translate(1124.77 321)">0.036</text></g><text font-family="Bembo,Bembo_MSFontService,sans-serif" font-style="italic" font-weight="700" font-size="21" transform="translate(679.629 352)">Male</text><g clip-path="url(#clip12)"><text font-family="Bembo,Bembo_MSFontService,sans-serif" font-weight="400" font-size="21" transform="translate(845.009 352)">37 (94.9%)</text></g><g clip-path="url(#clip13)"><text font-family="Bembo,Bembo_MSFontService,sans-serif" font-weight="400" font-size="21" transform="translate(986.674 352)">21 (77.8%)</text></g><text font-family="Bembo,Bembo_MSFontService,sans-serif" font-style="italic" font-weight="700" font-size="21" transform="translate(679.629 383)">Female</text><g clip-path="url(#clip14)"><text font-family="Bembo,Bembo_MSFontService,sans-serif" font-weight="400" font-size="21" transform="translate(845.009 383)">2 (5.1%)</text></g><g clip-path="url(#clip15)"><text font-family="Bembo,Bembo_MSFontService,sans-serif" font-weight="400" font-size="21" transform="translate(986.674 383)">6 (22.2%)</text></g><g clip-path="url(#clip16)"><text font-family="Bembo,Bembo_MSFontService,sans-serif" font-style="italic" font-weight="700" font-size="21" transform="translate(649.629 413)">Ethnicity</text></g><g clip-path="url(#clip17)"><text font-family="Bembo,Bembo_MSFontService,sans-serif" font-weight="400" font-size="21" transform="translate(1124.77 413)">0.166</text></g><text font-family="Bembo,Bembo_MSFontService,sans-serif" font-style="italic" font-weight="700" font-size="21" transform="translate(679.629 444)">Caucasian</text><g clip-path="url(#clip18)"><text font-family="Bembo,Bembo_MSFontService,sans-serif" font-weight="400" font-size="21" transform="translate(845.009 444)">23 (59.0%)</text></g><g clip-path="url(#clip19)"><text font-family="Bembo,Bembo_MSFontService,sans-serif" font-weight="400" font-size="21" transform="translate(986.674 444)">21 (77.8%)</text></g><text font-family="Bembo,Bembo_MSFontService,sans-serif" font-style="italic" font-weight="700" font-size="21" transform="translate(677.709 475)">African </text><g clip-path="url(#clip20)"><text font-family="Bembo,Bembo_MSFontService,sans-serif" font-style="italic" font-weight="700" font-size="21" transform="translate(649.629 501)">American</text></g><g clip-path="url(#clip21)"><text font-family="Bembo,Bembo_MSFontService,sans-serif" font-weight="400" font-size="21" transform="translate(845.009 475)">15 (38.5%)</text></g><g clip-path="url(#clip22)"><text font-family="Bembo,Bembo_MSFontService,sans-serif" font-weight="400" font-size="21" transform="translate(986.674 475)">5 (18.5%)</text></g><text font-family="Bembo,Bembo_MSFontService,sans-serif" font-style="italic" font-weight="700" font-size="21" transform="translate(677.709 531)">Asian American</text><g clip-path="url(#clip23)"><text font-family="Bembo,Bembo_MSFontService,sans-serif" font-weight="400" font-size="21" transform="translate(845.009 531)">0 (0%)</text></g><g clip-path="url(#clip24)"><text font-family="Bembo,Bembo_MSFontService,sans-serif" font-weight="400" font-size="21" transform="translate(986.674 531)">1 (3.7%)</text></g></g></svg>