<svg width="1280" height="720" xmlns="http://www.w3.org/2000/svg" xmlns:xlink="http://www.w3.org/1999/xlink" overflow="hidden"><defs><clipPath id="clip0"><rect x="0" y="0" width="1280" height="720"/></clipPath><clipPath id="clip1"><rect x="619" y="552" width="96" height="96"/></clipPath><clipPath id="clip2"><rect x="619" y="552" width="96" height="96"/></clipPath><clipPath id="clip3"><rect x="619" y="552" width="96" height="96"/></clipPath><clipPath id="clip4"><rect x="270" y="552" width="96" height="96"/></clipPath><clipPath id="clip5"><rect x="270" y="552" width="96" height="96"/></clipPath><clipPath id="clip6"><rect x="270" y="552" width="96" height="96"/></clipPath><clipPath id="clip7"><rect x="941" y="552" width="96" height="96"/></clipPath><clipPath id="clip8"><rect x="941" y="552" width="96" height="96"/></clipPath><clipPath id="clip9"><rect x="941" y="552" width="96" height="96"/></clipPath></defs><g clip-path="url(#clip0)"><rect x="0" y="0" width="1280" height="720" fill="#FFFFFF"/><path d="M16.8945 16.5466 16.8945 703.453 1263.11 703.453 1263.11 16.5466ZM0 0 1280 0 1280 720 0 720Z" fill="#E8E2E3" fill-rule="evenodd"/><rect x="0" y="0" width="1280" height="720" fill="#FFFFFF"/><rect x="0" y="0" width="1280" height="720" fill="#E8E2E3"/><rect x="17" y="17" width="1246" height="686" fill="#FFFFFF"/><text fill="#332441" font-family="Bembo,Bembo_MSFontService,sans-serif" font-weight="400" font-size="43" transform="translate(432.27 194)">INTRODUCTION</text><rect x="0" y="0" width="12.1196" height="12.1196" stroke="#332441" stroke-width="1.66667" stroke-miterlimit="8" fill="none" transform="matrix(-0.720314 0.693648 0.693648 0.720314 640.162 225.256)"/><path d="M649 234 685.969 234" stroke="#332441" stroke-width="1.66667" stroke-miterlimit="8" fill="none" fill-rule="evenodd"/><path d="M594 234 630.969 234" stroke="#332441" stroke-width="1.66667" stroke-miterlimit="8" fill="none" fill-rule="evenodd"/><path d="M171.5 330.3C171.5 321.022 179.022 313.5 188.3 313.5L418.7 313.5C427.978 313.5 435.5 321.022 435.5 330.3L435.5 464.7C435.5 473.978 427.978 481.5 418.7 481.5L188.3 481.5C179.022 481.5 171.5 473.978 171.5 464.7Z" stroke="#FFFFFF" stroke-width="1.33333" stroke-miterlimit="8" fill="#67AEA2" fill-rule="evenodd"/><path d="M201.5 358.3C201.5 349.022 209.022 341.5 218.3 341.5L447.7 341.5C456.978 341.5 464.5 349.022 464.5 358.3L464.5 492.7C464.5 501.978 456.978 509.5 447.7 509.5L218.3 509.5C209.022 509.5 201.5 501.978 201.5 492.7Z" stroke="#67AEA2" stroke-width="1.33333" stroke-miterlimit="8" fill="#FFFFFF" fill-rule="evenodd" fill-opacity="0.901961"/><text font-family="Bembo,Bembo_MSFontService,sans-serif" font-weight="400" font-size="39" transform="translate(217.993 435)">Interpretability</text><path d="M494.5 330.3C494.5 321.022 502.022 313.5 511.3 313.5L740.7 313.5C749.979 313.5 757.5 321.022 757.5 330.3L757.5 464.7C757.5 473.978 749.979 481.5 740.7 481.5L511.3 481.5C502.022 481.5 494.5 473.978 494.5 464.7Z" stroke="#FFFFFF" stroke-width="1.33333" stroke-miterlimit="8" fill="#67AEA2" fill-rule="evenodd"/><path d="M523.5 358.3C523.5 349.022 531.022 341.5 540.3 341.5L769.7 341.5C778.979 341.5 786.5 349.022 786.5 358.3L786.5 492.7C786.5 501.978 778.979 509.5 769.7 509.5L540.3 509.5C531.022 509.5 523.5 501.978 523.5 492.7Z" stroke="#67AEA2" stroke-width="1.33333" stroke-miterlimit="8" fill="#FFFFFF" fill-rule="evenodd" fill-opacity="0.901961"/><text font-family="Bembo,Bembo_MSFontService,sans-serif" font-weight="400" font-size="39" transform="translate(583.575 435)">Accuracy</text><path d="M816.5 330.3C816.5 321.022 824.022 313.5 833.3 313.5L1062.7 313.5C1071.98 313.5 1079.5 321.022 1079.5 330.3L1079.5 464.7C1079.5 473.978 1071.98 481.5 1062.7 481.5L833.3 481.5C824.022 481.5 816.5 473.978 816.5 464.7Z" stroke="#FFFFFF" stroke-width="1.33333" stroke-miterlimit="8" fill="#67AEA2" fill-rule="evenodd"/><path d="M845.5 358.3C845.5 349.022 853.022 341.5 862.3 341.5L1092.7 341.5C1101.98 341.5 1109.5 349.022 1109.5 358.3L1109.5 492.7C1109.5 501.978 1101.98 509.5 1092.7 509.5L862.3 509.5C853.022 509.5 845.5 501.978 845.5 492.7Z" stroke="#67AEA2" stroke-width="1.33333" stroke-miterlimit="8" fill="#FFFFFF" fill-rule="evenodd" fill-opacity="0.901961"/><text font-family="Bembo,Bembo_MSFontService,sans-serif" font-weight="400" font-size="39" transform="translate(885.43 435)">Complexity</text><g clip-path="url(#clip1)"><g clip-path="url(#clip2)"><g clip-path="url(#clip3)"><path d="M667 608C662.582 608 659 604.418 659 600 659 595.582 662.582 592 667 592 671.418 592 675 595.582 675 600 675 604.418 671.418 608 667 608ZM667 596C664.791 596 663 597.791 663 600 663 602.209 664.791 604 667 604 669.209 604 671 602.209 671 600 671 597.791 669.209 596 667 596Z"/><path d="M702 598C700.951 580.227 686.773 566.049 669 565L669 559 665 559 665 565C647.227 566.049 633.049 580.227 632 598L626 598 626 602 632 602C633.049 619.773 647.227 633.951 665 635L665 641 669 641 669 635C686.773 633.951 700.951 619.773 702 602L708 602 708 598ZM687.16 602C686.199 611.603 678.603 619.199 669 620.16L669 612 665 612 665 620.16C655.397 619.199 647.801 611.603 646.84 602L655 602 655 598 646.84 598C647.801 588.397 655.397 580.801 665 579.84L665 588 669 588 669 579.84C678.603 580.801 686.199 588.397 687.16 598L679 598 679 602ZM665 571 665 575.83C653.189 576.822 643.817 586.19 642.82 598L638 598C639.028 583.536 650.536 572.028 665 571ZM638 602 642.83 602C643.822 613.811 653.19 623.183 665 624.18L665 629C650.536 627.972 639.028 616.464 638 602ZM669 629 669 624.18C680.814 623.187 690.187 613.814 691.18 602L696 602C694.972 616.464 683.464 627.972 669 629ZM691.18 598C690.187 586.186 680.814 576.813 669 575.82L669 571C683.464 572.028 694.972 583.536 696 598Z"/></g></g></g><g clip-path="url(#clip4)"><g clip-path="url(#clip5)"><g clip-path="url(#clip6)"><path d="M312.772 572.951 312.772 572.951C307.401 572.982 303.036 577.293 302.937 582.663L302.937 583.032C302.98 584.21 303.216 585.373 303.637 586.475 304.027 587.466 304.59 588.38 305.299 589.175 306.426 590.534 307.392 592.019 308.176 593.601L317.363 593.601C318.148 592.02 319.113 590.534 320.24 589.175 320.949 588.38 321.512 587.466 321.903 586.475 322.323 585.373 322.56 584.21 322.603 583.032L322.603 582.663C322.501 577.296 318.14 572.987 312.772 572.951ZM313.235 590.558 313.235 584.689 307.945 585.889 313.235 575.563 313.235 581.542 318.729 580.455Z"/><path d="M351.005 601.3 344.105 589.3 344.105 588.8C344.711 572.204 331.748 558.259 315.151 557.653 298.555 557.048 284.611 570.011 284.005 586.607 283.978 587.338 283.978 588.069 284.005 588.8 283.966 598.262 288.327 607.204 295.805 613L295.805 638.3 327.405 638.3 327.405 626.3 332.305 626.3C338.822 626.301 344.106 621.019 344.107 614.502 344.107 614.435 344.106 614.367 344.105 614.3L344.105 608.3 348.505 608.3C351.105 608 353.405 605 351.005 601.3ZM312.772 606.558C311.097 606.56 309.703 605.273 309.572 603.603L315.965 603.603C315.834 605.27 314.444 606.556 312.772 606.558ZM317.178 601.558 308.366 601.558C307.551 601.537 306.908 600.859 306.929 600.044 306.949 599.259 307.581 598.627 308.366 598.607L317.178 598.607C317.993 598.628 318.636 599.306 318.615 600.121 318.595 600.906 317.963 601.538 317.178 601.558ZM325.558 583.084C325.511 584.599 325.21 586.095 324.668 587.51 324.15 588.846 323.397 590.079 322.445 591.15 321.261 592.649 320.256 594.281 319.451 596.013 319.285 596.347 318.943 596.559 318.57 596.559L306.97 596.559C306.597 596.559 306.256 596.347 306.09 596.013 305.283 594.281 304.276 592.649 303.09 591.15 302.138 590.079 301.385 588.846 300.867 587.51 300.326 586.095 300.025 584.599 299.977 583.084L299.977 582.642C300.103 575.654 305.782 570.043 312.771 570L312.771 570C319.757 570.046 325.431 575.654 325.558 582.639Z"/></g></g></g><g clip-path="url(#clip7)"><g clip-path="url(#clip8)"><g clip-path="url(#clip9)"><path d="M1004 567 956 567 956 597 962 597 962 573 968 573 968 597 986 597 986 615 968 615 968 621 992 621 992 591 974 591 974 573 986 573 986 579 980 579 980 585 992 585 992 573 1004 573 1004 567Z"/><path d="M1010 567 1010 573 1016 573 1016 579 998 579 998 597 1004 597 1004 585 1016 585 1016 592 1010 592 1010 598 1016 598 1016 615 1004 615 1004 609 1011 609 1011 603 998 603 998 621 1016 621 1016 627 962 627 962 609 980 609 980 603 956 603 956 633 1022 633 1022 567 1010 567Z"/></g></g></g></g></svg>