<svg width="1280" height="720" xmlns="http://www.w3.org/2000/svg" xmlns:xlink="http://www.w3.org/1999/xlink" overflow="hidden"><defs><filter id="fx0" x="-10%" y="-10%" width="120%" height="120%" filterUnits="userSpaceOnUse" primitiveUnits="userSpaceOnUse"><feComponentTransfer color-interpolation-filters="sRGB"><feFuncR type="discrete" tableValues="0 0"/><feFuncG type="discrete" tableValues="0 0"/><feFuncB type="discrete" tableValues="0 0"/><feFuncA type="linear" slope="0.631373" intercept="0"/></feComponentTransfer><feGaussianBlur stdDeviation="2 2"/></filter><clipPath id="clip1"><rect x="0" y="0" width="1280" height="720"/></clipPath><clipPath id="clip2"><rect x="-2" y="-2" width="603" height="383"/></clipPath><clipPath id="clip3"><rect x="0" y="0" width="601" height="379"/></clipPath></defs><g clip-path="url(#clip1)"><rect x="0" y="0" width="1280" height="720" fill="#FFFFFF"/><path d="M16.8945 16.5466 16.8945 703.453 1263.11 703.453 1263.11 16.5466ZM0 0 1280 0 1280 720 0 720Z" fill="#E8E2E3" fill-rule="evenodd"/><rect x="17" y="17" width="1246" height="686" fill="#E8E2E3"/><rect x="0" y="0" width="12.1196" height="12.1196" stroke="#332441" stroke-width="1.66667" stroke-miterlimit="8" fill="none" transform="matrix(-0.720314 0.693648 0.693648 0.720314 640.162 442.693)"/><path d="M649 451 685.969 451" stroke="#332441" stroke-width="1.66667" stroke-miterlimit="8" fill="none" fill-rule="evenodd"/><path d="M594 451 630.969 451" stroke="#332441" stroke-width="1.66667" stroke-miterlimit="8" fill="none" fill-rule="evenodd"/><rect x="0" y="0" width="1280" height="720" fill="#FFFFFF"/><path d="M108 108 532 108 532 616 319.243 544.235 108 616 108 108Z" fill="#E8E2E3" fill-rule="evenodd"/><rect x="0" y="0" width="12.1196" height="12.1196" stroke="#332441" stroke-width="1.66667" stroke-miterlimit="8" fill="none" transform="matrix(-0.720314 0.693648 0.693648 0.720314 320.162 475.198)"/><path d="M329 484 365.969 484" stroke="#332441" stroke-width="1.66667" stroke-miterlimit="8" fill="none" fill-rule="evenodd"/><path d="M274 484 310.969 484" stroke="#332441" stroke-width="1.66667" stroke-miterlimit="8" fill="none" fill-rule="evenodd"/><text fill="#332441" font-family="Bembo,Bembo_MSFontService,sans-serif" font-weight="400" font-size="37" transform="translate(199.2 346)">MEASURES</text><g clip-path="url(#clip2)" filter="url(#fx0)" transform="translate(632 173)"><g clip-path="url(#clip3)"><path d="M8 7.83885 591.6 7.83885 591.6 370.162 8 370.162Z" fill="#FFFFFF" fill-rule="evenodd"/><path d="M8 7.83885 102.422 7.83885 102.422 86.276 8 86.276Z" fill-rule="evenodd"/><path d="M102.422 7.83885 188.603 7.83885 188.603 86.276 102.422 86.276Z" fill-rule="evenodd"/><path d="M188.603 7.83885 258.305 7.83885 258.305 86.276 188.603 86.276Z" fill-rule="evenodd"/><path d="M258.305 7.83885 363.517 7.83885 363.517 86.276 258.305 86.276Z" fill-rule="evenodd"/><path d="M363.517 7.83885 477.559 7.83885 477.559 86.276 363.517 86.276Z" fill-rule="evenodd"/><path d="M477.559 7.83885 591.6 7.83885 591.6 86.276 477.559 86.276Z" fill-rule="evenodd"/><path d="M8 143.053 102.422 143.053 102.422 199.83 8 199.83Z" fill="#D9D9D9" fill-rule="evenodd"/><path d="M102.422 143.053 188.603 143.053 188.603 199.83 102.422 199.83Z" fill="#D9D9D9" fill-rule="evenodd"/><path d="M188.603 143.053 258.305 143.053 258.305 199.83 188.603 199.83Z" fill="#D9D9D9" fill-rule="evenodd"/><path d="M258.305 143.053 363.517 143.053 363.517 199.83 258.305 199.83Z" fill="#D9D9D9" fill-rule="evenodd"/><path d="M363.517 143.053 477.559 143.053 477.559 199.83 363.517 199.83Z" fill="#D9D9D9" fill-rule="evenodd"/><path d="M477.559 143.053 591.6 143.053 591.6 199.83 477.559 199.83Z" fill="#D9D9D9" fill-rule="evenodd"/><path d="M8 256.607 102.422 256.607 102.422 313.384 8 313.384Z" fill="#D9D9D9" fill-rule="evenodd"/><path d="M102.422 256.607 188.603 256.607 188.603 313.384 102.422 313.384Z" fill="#D9D9D9" fill-rule="evenodd"/><path d="M188.603 256.607 258.305 256.607 258.305 313.384 188.603 313.384Z" fill="#D9D9D9" fill-rule="evenodd"/><path d="M258.305 256.607 363.517 256.607 363.517 313.384 258.305 313.384Z" fill="#D9D9D9" fill-rule="evenodd"/><path d="M363.517 256.607 477.559 256.607 477.559 313.384 363.517 313.384Z" fill="#D9D9D9" fill-rule="evenodd"/><path d="M477.559 256.607 591.6 256.607 591.6 313.384 477.559 313.384Z" fill="#D9D9D9" fill-rule="evenodd"/><path d="M102.422 6.83885 102.422 86.276" stroke="#000000" stroke-width="2" stroke-linejoin="round" stroke-miterlimit="10" fill="none" fill-rule="evenodd"/><path d="M102.422 86.276 102.422 371.162" stroke="#7F7F7F" stroke-width="0.666667" stroke-linejoin="round" stroke-miterlimit="10" fill="none" fill-rule="evenodd"/><path d="M188.603 6.83885 188.603 86.276" stroke="#000000" stroke-width="2" stroke-linejoin="round" stroke-miterlimit="10" fill="none" fill-rule="evenodd"/><path d="M188.603 86.276 188.603 371.162" stroke="#7F7F7F" stroke-width="0.666667" stroke-linejoin="round" stroke-miterlimit="10" fill="none" fill-rule="evenodd"/><path d="M258.305 6.83885 258.305 86.276" stroke="#000000" stroke-width="2" stroke-linejoin="round" stroke-miterlimit="10" fill="none" fill-rule="evenodd"/><path d="M258.305 86.276 258.305 371.162" stroke="#7F7F7F" stroke-width="0.666667" stroke-linejoin="round" stroke-miterlimit="10" fill="none" fill-rule="evenodd"/><path d="M363.517 6.83885 363.517 86.276" stroke="#000000" stroke-width="2" stroke-linejoin="round" stroke-miterlimit="10" fill="none" fill-rule="evenodd"/><path d="M363.517 86.276 363.517 371.162" stroke="#7F7F7F" stroke-width="0.666667" stroke-linejoin="round" stroke-miterlimit="10" fill="none" fill-rule="evenodd"/><path d="M477.559 6.83885 477.559 86.276" stroke="#000000" stroke-width="2" stroke-linejoin="round" stroke-miterlimit="10" fill="none" fill-rule="evenodd"/><path d="M477.559 86.276 477.559 371.162" stroke="#7F7F7F" stroke-width="0.666667" stroke-linejoin="round" stroke-miterlimit="10" fill="none" fill-rule="evenodd"/><path d="M7 143.053 592.6 143.053" stroke="#000000" stroke-width="2" stroke-linejoin="round" stroke-miterlimit="10" fill="none" fill-rule="evenodd"/><path d="M7 256.607 592.6 256.607" stroke="#000000" stroke-width="2" stroke-linejoin="round" stroke-miterlimit="10" fill="none" fill-rule="evenodd"/><path d="M8 6.83885 8 144.053" stroke="#000000" stroke-width="2" stroke-linejoin="round" stroke-miterlimit="10" fill="none" fill-rule="evenodd"/><path d="M8 144.053 8 199.83" stroke="#7F7F7F" stroke-width="0.666667" stroke-linejoin="round" stroke-miterlimit="10" fill="none" fill-rule="evenodd"/><path d="M8 199.83 8 257.607" stroke="#000000" stroke-width="2" stroke-linejoin="round" stroke-miterlimit="10" fill="none" fill-rule="evenodd"/><path d="M8 257.607 8 313.384" stroke="#7F7F7F" stroke-width="0.666667" stroke-linejoin="round" stroke-miterlimit="10" fill="none" fill-rule="evenodd"/><path d="M8 313.384 8 371.162" stroke="#000000" stroke-width="2" stroke-linejoin="round" stroke-miterlimit="10" fill="none" fill-rule="evenodd"/><path d="M591.6 86.276 591.6 144.053" stroke="#000000" stroke-width="2" stroke-linejoin="round" stroke-miterlimit="10" fill="none" fill-rule="evenodd"/><path d="M591.6 199.83 591.6 257.607" stroke="#000000" stroke-width="2" stroke-linejoin="round" stroke-miterlimit="10" fill="none" fill-rule="evenodd"/><path d="M591.6 313.384 591.6 371.162" stroke="#000000" stroke-width="2" stroke-linejoin="round" stroke-miterlimit="10" fill="none" fill-rule="evenodd"/><path d="M7 7.83885 591.6 7.83885" stroke="#000000" stroke-width="2" stroke-linejoin="round" stroke-miterlimit="10" fill="none" fill-rule="evenodd"/><path d="M7 370.162 592.6 370.162" stroke="#000000" stroke-width="2" stroke-linejoin="round" stroke-miterlimit="10" fill="none" fill-rule="evenodd"/></g></g><path d="M640 178.839 1223.6 178.839 1223.6 541.162 640 541.162Z" fill="#FFFFFF" fill-rule="evenodd"/><path d="M640 178.839 734.422 178.839 734.422 257.276 640 257.276Z" fill-rule="evenodd"/><path d="M734.422 178.839 820.603 178.839 820.603 257.276 734.422 257.276Z" fill-rule="evenodd"/><path d="M820.603 178.839 890.305 178.839 890.305 257.276 820.603 257.276Z" fill-rule="evenodd"/><path d="M890.305 178.839 995.517 178.839 995.517 257.276 890.305 257.276Z" fill-rule="evenodd"/><path d="M995.517 178.839 1109.56 178.839 1109.56 257.276 995.517 257.276Z" fill-rule="evenodd"/><path d="M1109.56 178.839 1223.6 178.839 1223.6 257.276 1109.56 257.276Z" fill-rule="evenodd"/><path d="M640 314.053 734.422 314.053 734.422 370.83 640 370.83Z" fill="#D9D9D9" fill-rule="evenodd"/><path d="M734.422 314.053 820.603 314.053 820.603 370.83 734.422 370.83Z" fill="#D9D9D9" fill-rule="evenodd"/><path d="M820.603 314.053 890.305 314.053 890.305 370.83 820.603 370.83Z" fill="#D9D9D9" fill-rule="evenodd"/><path d="M890.305 314.053 995.517 314.053 995.517 370.83 890.305 370.83Z" fill="#D9D9D9" fill-rule="evenodd"/><path d="M995.517 314.053 1109.56 314.053 1109.56 370.83 995.517 370.83Z" fill="#D9D9D9" fill-rule="evenodd"/><path d="M1109.56 314.053 1223.6 314.053 1223.6 370.83 1109.56 370.83Z" fill="#D9D9D9" fill-rule="evenodd"/><path d="M640 427.607 734.422 427.607 734.422 484.384 640 484.384Z" fill="#D9D9D9" fill-rule="evenodd"/><path d="M734.422 427.607 820.603 427.607 820.603 484.384 734.422 484.384Z" fill="#D9D9D9" fill-rule="evenodd"/><path d="M820.603 427.607 890.305 427.607 890.305 484.384 820.603 484.384Z" fill="#D9D9D9" fill-rule="evenodd"/><path d="M890.305 427.607 995.517 427.607 995.517 484.384 890.305 484.384Z" fill="#D9D9D9" fill-rule="evenodd"/><path d="M995.517 427.607 1109.56 427.607 1109.56 484.384 995.517 484.384Z" fill="#D9D9D9" fill-rule="evenodd"/><path d="M1109.56 427.607 1223.6 427.607 1223.6 484.384 1109.56 484.384Z" fill="#D9D9D9" fill-rule="evenodd"/><path d="M734.422 177.839 734.422 257.276" stroke="#000000" stroke-width="2" stroke-linejoin="round" stroke-miterlimit="10" fill="none" fill-rule="evenodd"/><path d="M734.422 257.276 734.422 542.162" stroke="#7F7F7F" stroke-width="0.666667" stroke-linejoin="round" stroke-miterlimit="10" fill="none" fill-rule="evenodd"/><path d="M820.603 177.839 820.603 257.276" stroke="#000000" stroke-width="2" stroke-linejoin="round" stroke-miterlimit="10" fill="none" fill-rule="evenodd"/><path d="M820.603 257.276 820.603 542.162" stroke="#7F7F7F" stroke-width="0.666667" stroke-linejoin="round" stroke-miterlimit="10" fill="none" fill-rule="evenodd"/><path d="M890.305 177.839 890.305 257.276" stroke="#000000" stroke-width="2" stroke-linejoin="round" stroke-miterlimit="10" fill="none" fill-rule="evenodd"/><path d="M890.305 257.276 890.305 542.162" stroke="#7F7F7F" stroke-width="0.666667" stroke-linejoin="round" stroke-miterlimit="10" fill="none" fill-rule="evenodd"/><path d="M995.517 177.839 995.517 257.276" stroke="#000000" stroke-width="2" stroke-linejoin="round" stroke-miterlimit="10" fill="none" fill-rule="evenodd"/><path d="M995.517 257.276 995.517 542.162" stroke="#7F7F7F" stroke-width="0.666667" stroke-linejoin="round" stroke-miterlimit="10" fill="none" fill-rule="evenodd"/><path d="M1109.56 177.839 1109.56 257.276" stroke="#000000" stroke-width="2" stroke-linejoin="round" stroke-miterlimit="10" fill="none" fill-rule="evenodd"/><path d="M1109.56 257.276 1109.56 542.162" stroke="#7F7F7F" stroke-width="0.666667" stroke-linejoin="round" stroke-miterlimit="10" fill="none" fill-rule="evenodd"/><path d="M639 314.053 1224.6 314.053" stroke="#000000" stroke-width="2" stroke-linejoin="round" stroke-miterlimit="10" fill="none" fill-rule="evenodd"/><path d="M639 427.607 1224.6 427.607" stroke="#000000" stroke-width="2" stroke-linejoin="round" stroke-miterlimit="10" fill="none" fill-rule="evenodd"/><path d="M640 177.839 640 315.053" stroke="#000000" stroke-width="2" stroke-linejoin="round" stroke-miterlimit="10" fill="none" fill-rule="evenodd"/><path d="M640 315.053 640 370.83" stroke="#7F7F7F" stroke-width="0.666667" stroke-linejoin="round" stroke-miterlimit="10" fill="none" fill-rule="evenodd"/><path d="M640 370.83 640 428.607" stroke="#000000" stroke-width="2" stroke-linejoin="round" stroke-miterlimit="10" fill="none" fill-rule="evenodd"/><path d="M640 428.607 640 484.384" stroke="#7F7F7F" stroke-width="0.666667" stroke-linejoin="round" stroke-miterlimit="10" fill="none" fill-rule="evenodd"/><path d="M640 484.384 640 542.162" stroke="#000000" stroke-width="2" stroke-linejoin="round" stroke-miterlimit="10" fill="none" fill-rule="evenodd"/><path d="M1223.6 257.276 1223.6 315.053" stroke="#000000" stroke-width="2" stroke-linejoin="round" stroke-miterlimit="10" fill="none" fill-rule="evenodd"/><path d="M1223.6 370.83 1223.6 428.607" stroke="#000000" stroke-width="2" stroke-linejoin="round" stroke-miterlimit="10" fill="none" fill-rule="evenodd"/><path d="M1223.6 484.384 1223.6 542.162" stroke="#000000" stroke-width="2" stroke-linejoin="round" stroke-miterlimit="10" fill="none" fill-rule="evenodd"/><path d="M639 178.839 1223.6 178.839" stroke="#000000" stroke-width="2" stroke-linejoin="round" stroke-miterlimit="10" fill="none" fill-rule="evenodd"/><path d="M639 541.162 1224.6 541.162" stroke="#000000" stroke-width="2" stroke-linejoin="round" stroke-miterlimit="10" fill="none" fill-rule="evenodd"/><text fill="#FFFFFF" font-family="Calibri,Calibri_MSFontService,sans-serif" font-weight="700" font-size="17" transform="translate(661.112 224)">Sample<tspan font-size="17" x="94.4218" y="0">Group</tspan><tspan font-size="17" x="180.603" y="-11">Fish </tspan><tspan font-size="17" x="180.603" y="10">Oil</tspan><tspan font-size="17" x="250.305" y="0">posLip71</tspan><tspan font-size="17" x="355.517" y="0">posLip132</tspan><tspan font-size="17" x="469.559" y="0">posLip209</tspan><tspan fill="#000000" font-weight="400" font-size="16" x="0" y="67">[CN01]</tspan><tspan fill="#000000" font-weight="400" font-size="16" x="94.4218" y="67">CN</tspan><tspan fill="#000000" font-weight="400" font-size="16" x="180.603" y="67">yes</tspan><tspan fill="#000000" font-weight="400" font-size="16" x="250.305" y="67">-</tspan><tspan fill="#000000" font-weight="400" font-size="16" x="255.138" y="67">0.006</tspan><tspan fill="#000000" font-weight="400" font-size="16" x="355.517" y="67">-</tspan><tspan fill="#000000" font-weight="400" font-size="16" x="360.351" y="67">0.755</tspan><tspan fill="#000000" font-weight="400" font-size="16" x="469.559" y="67">0.446</tspan><tspan fill="#000000" font-weight="400" font-size="16" x="0" y="124">[CN02]</tspan><tspan fill="#000000" font-weight="400" font-size="16" x="94.4218" y="124">CN</tspan><tspan fill="#000000" font-weight="400" font-size="16" x="180.603" y="124">yes</tspan><tspan fill="#000000" font-weight="400" font-size="16" x="250.305" y="124">2.048</tspan><tspan fill="#000000" font-weight="400" font-size="16" x="355.517" y="124">0.174</tspan><tspan fill="#000000" font-weight="400" font-size="16" x="469.559" y="124">0.555</tspan><tspan fill="#000000" font-weight="400" font-size="16" x="0" y="181">[CN03]</tspan><tspan fill="#000000" font-weight="400" font-size="16" x="94.4218" y="181">CN</tspan><tspan fill="#000000" font-weight="400" font-size="16" x="180.603" y="181">yes</tspan><tspan fill="#000000" font-weight="400" font-size="16" x="250.305" y="181">2.098</tspan><tspan fill="#000000" font-weight="400" font-size="16" x="355.517" y="181">-</tspan><tspan fill="#000000" font-weight="400" font-size="16" x="360.351" y="181">0.933</tspan><tspan fill="#000000" font-weight="400" font-size="16" x="469.559" y="181">0.164</tspan><tspan fill="#000000" font-weight="400" font-size="16" x="0" y="237">[CN04]</tspan><tspan fill="#000000" font-weight="400" font-size="16" x="94.4218" y="237">CN</tspan><tspan fill="#000000" font-weight="400" font-size="16" x="180.603" y="237">no</tspan><tspan fill="#000000" font-weight="400" font-size="16" x="250.305" y="237">-</tspan><tspan fill="#000000" font-weight="400" font-size="16" x="255.138" y="237">0.324</tspan><tspan fill="#000000" font-weight="400" font-size="16" x="355.517" y="237">0.422</tspan><tspan fill="#000000" font-weight="400" font-size="16" x="469.559" y="237">-</tspan><tspan fill="#000000" font-weight="400" font-size="16" x="474.392" y="237">0.088</tspan><tspan fill="#000000" font-weight="400" font-size="16" x="0" y="294">[CS01]</tspan><tspan fill="#000000" font-weight="400" font-size="16" x="94.4218" y="294">CS</tspan><tspan fill="#000000" font-weight="400" font-size="16" x="180.603" y="294">yes</tspan><tspan fill="#000000" font-weight="400" font-size="16" x="250.305" y="294">0.621</tspan><tspan fill="#000000" font-weight="400" font-size="16" x="355.517" y="294">1.411</tspan><tspan fill="#000000" font-weight="400" font-size="16" x="469.559" y="294">1.078</tspan></text></g></svg>