<svg width="1280" height="720" xmlns="http://www.w3.org/2000/svg" xmlns:xlink="http://www.w3.org/1999/xlink" overflow="hidden"><defs><clipPath id="clip0"><rect x="0" y="0" width="1280" height="720"/></clipPath></defs><g clip-path="url(#clip0)"><rect x="0" y="0" width="1280" height="720" fill="#FFFFFF"/><path d="M16.8945 16.5466 16.8945 703.453 1263.11 703.453 1263.11 16.5466ZM0 0 1280 0 1280 720 0 720Z" fill="#E8E2E3" fill-rule="evenodd"/><rect x="0" y="0" width="1280" height="720" fill="#FFFFFF"/><rect x="0" y="0" width="1280" height="720" fill="#E8E2E3"/><rect x="17" y="17" width="1246" height="686" fill="#FFFFFF"/><text fill="#332441" font-family="Bembo,Bembo_MSFontService,sans-serif" font-weight="400" font-size="43" transform="translate(571.48 195)">Purpose<tspan font-style="italic" font-weight="700" font-size="27" x="-226.95" y="242">Matrix Linear Models</tspan><tspan font-size="27" x="4.42334" y="242">: a simple framework for encoding </tspan><tspan font-size="27" x="-214.483" y="278">relationships and groupings in high</tspan><tspan font-size="27" x="153.65" y="278">-</tspan><tspan font-size="27" x="164.15" y="278">throughput omics </tspan><tspan font-size="27" x="15.9567" y="313">screening.</tspan></text><rect x="0" y="0" width="12.1196" height="12.1196" stroke="#332441" stroke-width="1.66667" stroke-miterlimit="8" fill="none" transform="matrix(-0.720314 0.693648 0.693648 0.720314 640.162 243.706)"/><path d="M649 252 685.969 252" stroke="#332441" stroke-width="1.66667" stroke-miterlimit="8" fill="none" fill-rule="evenodd"/><path d="M594 252 630.969 252" stroke="#332441" stroke-width="1.66667" stroke-miterlimit="8" fill="none" fill-rule="evenodd"/></g></svg>