<svg width="1280" height="720" xmlns="http://www.w3.org/2000/svg" xmlns:xlink="http://www.w3.org/1999/xlink" overflow="hidden"><defs><clipPath id="clip0"><rect x="0" y="0" width="1280" height="720"/></clipPath><clipPath id="clip1"><rect x="596" y="433" width="210" height="136"/></clipPath><clipPath id="clip2"><rect x="805" y="433" width="81" height="136"/></clipPath><clipPath id="clip3"><rect x="885" y="433" width="105" height="136"/></clipPath><clipPath id="clip4"><rect x="989" y="433" width="102" height="136"/></clipPath><clipPath id="clip5"><rect x="1090" y="433" width="151" height="136"/></clipPath><clipPath id="clip6"><rect x="596" y="470" width="210" height="135"/></clipPath><clipPath id="clip7"><rect x="805" y="470" width="81" height="135"/></clipPath><clipPath id="clip8"><rect x="885" y="470" width="105" height="135"/></clipPath><clipPath id="clip9"><rect x="989" y="470" width="102" height="135"/></clipPath><clipPath id="clip10"><rect x="1090" y="470" width="151" height="135"/></clipPath><clipPath id="clip11"><rect x="596" y="506" width="210" height="136"/></clipPath><clipPath id="clip12"><rect x="805" y="506" width="81" height="136"/></clipPath><clipPath id="clip13"><rect x="885" y="506" width="105" height="136"/></clipPath><clipPath id="clip14"><rect x="989" y="506" width="102" height="136"/></clipPath><clipPath id="clip15"><rect x="1090" y="506" width="151" height="136"/></clipPath><clipPath id="clip16"><rect x="596" y="542" width="210" height="136"/></clipPath><clipPath id="clip17"><rect x="805" y="542" width="81" height="136"/></clipPath><clipPath id="clip18"><rect x="885" y="542" width="105" height="136"/></clipPath><clipPath id="clip19"><rect x="989" y="542" width="102" height="136"/></clipPath><clipPath id="clip20"><rect x="1090" y="542" width="151" height="136"/></clipPath><clipPath id="clip21"><rect x="596" y="579" width="210" height="135"/></clipPath><clipPath id="clip22"><rect x="805" y="579" width="81" height="135"/></clipPath><clipPath id="clip23"><rect x="885" y="579" width="105" height="135"/></clipPath><clipPath id="clip24"><rect x="989" y="579" width="102" height="135"/></clipPath><clipPath id="clip25"><rect x="1090" y="579" width="151" height="135"/></clipPath><clipPath id="clip26"><rect x="596" y="615" width="210" height="136"/></clipPath><clipPath id="clip27"><rect x="805" y="615" width="81" height="136"/></clipPath><clipPath id="clip28"><rect x="885" y="615" width="105" height="136"/></clipPath><clipPath id="clip29"><rect x="989" y="615" width="102" height="136"/></clipPath><clipPath id="clip30"><rect x="1090" y="615" width="151" height="136"/></clipPath><clipPath id="clip31"><rect x="596" y="22" width="121" height="136"/></clipPath><clipPath id="clip32"><rect x="716" y="22" width="525" height="136"/></clipPath><clipPath id="clip33"><rect x="596" y="50" width="121" height="135"/></clipPath><clipPath id="clip34"><rect x="716" y="-8" width="525" height="270"/></clipPath><clipPath id="clip35"><rect x="716" y="-8" width="525" height="270"/></clipPath><clipPath id="clip36"><rect x="596" y="102" width="121" height="135"/></clipPath><clipPath id="clip37"><rect x="716" y="-129" width="525" height="673"/></clipPath><clipPath id="clip38"><rect x="716" y="-129" width="525" height="673"/></clipPath><clipPath id="clip39"><rect x="716" y="-129" width="525" height="673"/></clipPath><clipPath id="clip40"><rect x="716" y="-129" width="525" height="673"/></clipPath><clipPath id="clip41"><rect x="716" y="-129" width="525" height="673"/></clipPath><clipPath id="clip42"><rect x="596" y="207" width="121" height="135"/></clipPath><clipPath id="clip43"><rect x="716" y="-24" width="525" height="673"/></clipPath><clipPath id="clip44"><rect x="716" y="-24" width="525" height="673"/></clipPath><clipPath id="clip45"><rect x="716" y="-24" width="525" height="673"/></clipPath><clipPath id="clip46"><rect x="716" y="-24" width="525" height="673"/></clipPath><clipPath id="clip47"><rect x="716" y="-24" width="525" height="673"/></clipPath></defs><g clip-path="url(#clip0)"><rect x="0" y="0" width="1280" height="720" fill="#FFFFFF"/><path d="M16.8945 16.5466 16.8945 703.453 1263.11 703.453 1263.11 16.5466ZM0 0 1280 0 1280 720 0 720Z" fill="#E8E2E3" fill-rule="evenodd"/><path d="M16.8945 16.5466 16.8945 703.453 1263.11 703.453 1263.11 16.5466ZM0 0 1280 0 1280 720 0 720Z" fill="#E8E2E3" fill-rule="evenodd"/><rect x="0" y="0" width="1280" height="720" fill="#FFFFFF"/><path d="M76 76 557 76 557 653 315.641 571.487 76 653 76 76Z" fill="#E8E2E3" fill-rule="evenodd"/><text fill="#332441" font-family="Bembo,Bembo_MSFontService,sans-serif" font-weight="400" font-size="43" transform="translate(146.008 220)">Lipid <tspan font-size="43" x="100.333" y="0">Characteristics</tspan><tspan font-style="italic" font-weight="700" font-size="23" x="-21.3271" y="109">Examined Lipids Attributes:</tspan><tspan font-family="Arial,Arial_MSFontService,sans-serif" font-size="23" x="-21.3271" y="150">•</tspan><tspan font-size="23" x="8.67291" y="150">Oxidation</tspan><tspan font-family="Arial,Arial_MSFontService,sans-serif" font-size="23" x="-21.3271" y="191">•</tspan><tspan font-size="23" x="8.67291" y="191">Plasmalogen</tspan><tspan font-family="Arial,Arial_MSFontService,sans-serif" font-size="23" x="-21.3271" y="231">•</tspan><tspan font-size="23" x="8.67291" y="231">Total Carbon</tspan><tspan font-family="Arial,Arial_MSFontService,sans-serif" font-size="23" x="-21.3271" y="272">•</tspan><tspan font-size="23" x="8.67291" y="272">Total Double Bounds (degree of </tspan><tspan font-size="23" x="8.67291" y="299">unsaturation)</tspan></text><rect x="0" y="0" width="12.1196" height="12.1196" stroke="#332441" stroke-width="1.66667" stroke-miterlimit="8" fill="none" transform="matrix(-0.720314 0.693648 0.693648 0.720314 316.615 264.542)"/><path d="M325 273 361.969 273" stroke="#332441" stroke-width="1.66667" stroke-miterlimit="8" fill="none" fill-rule="evenodd"/><path d="M271 273 307.969 273" stroke="#332441" stroke-width="1.66667" stroke-miterlimit="8" fill="none" fill-rule="evenodd"/><path d="M596.739 482.857 805.174 482.857 805.174 519.236 596.739 519.236Z" fill="#DAE8FC" fill-rule="evenodd"/><path d="M805.174 482.857 885.225 482.857 885.225 519.236 805.174 519.236Z" fill="#DAE8FC" fill-rule="evenodd"/><path d="M885.225 482.857 989.442 482.857 989.442 519.236 885.225 519.236Z" fill="#DAE8FC" fill-rule="evenodd"/><path d="M989.442 482.857 1090.64 482.857 1090.64 519.236 989.442 519.236Z" fill="#DAE8FC" fill-rule="evenodd"/><path d="M1090.64 482.857 1240.17 482.857 1240.17 519.236 1090.64 519.236Z" fill="#DAE8FC" fill-rule="evenodd"/><path d="M596.739 519.236 805.174 519.236 805.174 555.615 596.739 555.615Z" fill="#DAE8FC" fill-rule="evenodd"/><path d="M805.174 519.236 885.225 519.236 885.225 555.615 805.174 555.615Z" fill="#DAE8FC" fill-rule="evenodd"/><path d="M885.225 519.236 989.442 519.236 989.442 555.615 885.225 555.615Z" fill="#DAE8FC" fill-rule="evenodd"/><path d="M989.442 519.236 1090.64 519.236 1090.64 555.615 989.442 555.615Z" fill="#DAE8FC" fill-rule="evenodd"/><path d="M1090.64 519.236 1240.17 519.236 1240.17 555.615 1090.64 555.615Z" fill="#DAE8FC" fill-rule="evenodd"/><path d="M596.739 555.615 805.174 555.615 805.174 591.994 596.739 591.994Z" fill="#DAE8FC" fill-rule="evenodd"/><path d="M805.174 555.615 885.225 555.615 885.225 591.994 805.174 591.994Z" fill="#DAE8FC" fill-rule="evenodd"/><path d="M885.225 555.615 989.442 555.615 989.442 591.994 885.225 591.994Z" fill="#DAE8FC" fill-rule="evenodd"/><path d="M989.442 555.615 1090.64 555.615 1090.64 591.994 989.442 591.994Z" fill="#DAE8FC" fill-rule="evenodd"/><path d="M1090.64 555.615 1240.17 555.615 1240.17 591.994 1090.64 591.994Z" fill="#DAE8FC" fill-rule="evenodd"/><path d="M596.739 591.994 805.174 591.994 805.174 628.373 596.739 628.373Z" fill="#DAE8FC" fill-rule="evenodd"/><path d="M805.174 591.994 885.225 591.994 885.225 628.373 805.174 628.373Z" fill="#DAE8FC" fill-rule="evenodd"/><path d="M885.225 591.994 989.442 591.994 989.442 628.373 885.225 628.373Z" fill="#DAE8FC" fill-rule="evenodd"/><path d="M989.442 591.994 1090.64 591.994 1090.64 628.373 989.442 628.373Z" fill="#DAE8FC" fill-rule="evenodd"/><path d="M1090.64 591.994 1240.17 591.994 1240.17 628.373 1090.64 628.373Z" fill="#DAE8FC" fill-rule="evenodd"/><path d="M596.739 628.373 805.174 628.373 805.174 664.752 596.739 664.752Z" fill="#DAE8FC" fill-rule="evenodd"/><path d="M805.174 628.373 885.225 628.373 885.225 664.752 805.174 664.752Z" fill="#DAE8FC" fill-rule="evenodd"/><path d="M885.225 628.373 989.442 628.373 989.442 664.752 885.225 664.752Z" fill="#DAE8FC" fill-rule="evenodd"/><path d="M989.442 628.373 1090.64 628.373 1090.64 664.752 989.442 664.752Z" fill="#DAE8FC" fill-rule="evenodd"/><path d="M1090.64 628.373 1240.17 628.373 1240.17 664.752 1090.64 664.752Z" fill="#DAE8FC" fill-rule="evenodd"/><path d="M596.739 664.752 805.174 664.752 805.174 701.13 596.739 701.13Z" fill="#DAE8FC" fill-rule="evenodd"/><path d="M805.174 664.752 885.225 664.752 885.225 701.13 805.174 701.13Z" fill="#DAE8FC" fill-rule="evenodd"/><path d="M885.225 664.752 989.442 664.752 989.442 701.13 885.225 701.13Z" fill="#DAE8FC" fill-rule="evenodd"/><path d="M989.442 664.752 1090.64 664.752 1090.64 701.13 989.442 701.13Z" fill="#DAE8FC" fill-rule="evenodd"/><path d="M1090.64 664.752 1240.17 664.752 1240.17 701.13 1090.64 701.13Z" fill="#DAE8FC" fill-rule="evenodd"/><path d="M596.739 519.236 1240.17 519.236" stroke="#000000" stroke-width="1.33333" stroke-linejoin="round" stroke-miterlimit="10" fill="none" fill-rule="evenodd"/><path d="M596.739 482.857 1240.17 482.857" stroke="#000000" stroke-width="1.33333" stroke-linejoin="round" stroke-miterlimit="10" fill="none" fill-rule="evenodd"/><path d="M596.739 701.13 1240.17 701.13" stroke="#000000" stroke-width="1.33333" stroke-linejoin="round" stroke-miterlimit="10" fill="none" fill-rule="evenodd"/><g clip-path="url(#clip1)"><text font-family="Calibri,Calibri_MSFontService,sans-serif" font-weight="700" font-size="16" transform="translate(601.431 506)">Molecular Lipid</text></g><g clip-path="url(#clip2)"><text font-family="Calibri,Calibri_MSFontService,sans-serif" font-weight="700" font-size="16" transform="translate(809.866 506)">Oxidation</text></g><g clip-path="url(#clip3)"><text font-family="Calibri,Calibri_MSFontService,sans-serif" font-weight="700" font-size="16" transform="translate(889.917 506)">Plasmalogen</text></g><g clip-path="url(#clip4)"><text font-family="Calibri,Calibri_MSFontService,sans-serif" font-weight="700" font-size="16" transform="translate(994.134 506)">Total Carbon</text></g><g clip-path="url(#clip5)"><text font-family="Calibri,Calibri_MSFontService,sans-serif" font-weight="700" font-size="16" transform="translate(1095.33 506)">Total Double Bounds</text></g><g clip-path="url(#clip6)"><text font-family="Calibri,Calibri_MSFontService,sans-serif" font-weight="400" font-size="16" transform="translate(601.431 543)">TG</text></g><text font-family="Calibri,Calibri_MSFontService,sans-serif" font-weight="400" font-size="16" transform="translate(618.971 543)">(16:0_18:1_18:3(OH<tspan font-size="16" x="132.833" y="0">))</tspan></text><g clip-path="url(#clip7)"><text font-family="Calibri,Calibri_MSFontService,sans-serif" font-weight="400" font-size="16" transform="translate(809.866 543)">yes</text></g><g clip-path="url(#clip8)"><text font-family="Calibri,Calibri_MSFontService,sans-serif" font-weight="400" font-size="16" transform="translate(889.917 543)">no</text></g><g clip-path="url(#clip9)"><text font-family="Calibri,Calibri_MSFontService,sans-serif" font-weight="400" font-size="16" transform="translate(994.134 543)">52</text></g><g clip-path="url(#clip10)"><text font-family="Calibri,Calibri_MSFontService,sans-serif" font-weight="400" font-size="16" transform="translate(1095.33 543)">4</text></g><g clip-path="url(#clip11)"><text font-family="Calibri,Calibri_MSFontService,sans-serif" font-weight="400" font-size="16" transform="translate(601.431 579)">TG</text></g><text font-family="Calibri,Calibri_MSFontService,sans-serif" font-weight="400" font-size="16" transform="translate(618.971 579)">(O-<tspan font-size="16" x="20.3333" y="0">16:0_16:0_18:1</tspan><tspan font-size="16" x="122.833" y="0">)</tspan></text><g clip-path="url(#clip12)"><text font-family="Calibri,Calibri_MSFontService,sans-serif" font-weight="400" font-size="16" transform="translate(809.866 579)">no</text></g><g clip-path="url(#clip13)"><text font-family="Calibri,Calibri_MSFontService,sans-serif" font-weight="400" font-size="16" transform="translate(889.917 579)">plasmanyl</text></g><g clip-path="url(#clip14)"><text font-family="Calibri,Calibri_MSFontService,sans-serif" font-weight="400" font-size="16" transform="translate(994.134 579)">50</text></g><g clip-path="url(#clip15)"><text font-family="Calibri,Calibri_MSFontService,sans-serif" font-weight="400" font-size="16" transform="translate(1095.33 579)">1</text></g><g clip-path="url(#clip16)"><text font-family="Calibri,Calibri_MSFontService,sans-serif" font-weight="400" font-size="16" transform="translate(601.431 616)">TG</text></g><text font-family="Calibri,Calibri_MSFontService,sans-serif" font-weight="400" font-size="16" transform="translate(618.971 616)">(10:0_16:0_18:2<tspan font-size="16" x="107.333" y="0">)</tspan></text><g clip-path="url(#clip17)"><text font-family="Calibri,Calibri_MSFontService,sans-serif" font-weight="400" font-size="16" transform="translate(809.866 616)">no</text></g><g clip-path="url(#clip18)"><text font-family="Calibri,Calibri_MSFontService,sans-serif" font-weight="400" font-size="16" transform="translate(889.917 616)">no</text></g><g clip-path="url(#clip19)"><text font-family="Calibri,Calibri_MSFontService,sans-serif" font-weight="400" font-size="16" transform="translate(994.134 616)">44</text></g><g clip-path="url(#clip20)"><text font-family="Calibri,Calibri_MSFontService,sans-serif" font-weight="400" font-size="16" transform="translate(1095.33 616)">2</text></g><g clip-path="url(#clip21)"><text font-family="Calibri,Calibri_MSFontService,sans-serif" font-weight="400" font-size="16" transform="translate(601.431 652)">TG</text></g><text font-family="Calibri,Calibri_MSFontService,sans-serif" font-weight="400" font-size="16" transform="translate(618.971 652)">(12:0_18:1_18:2<tspan font-size="16" x="107.333" y="0">)</tspan></text><g clip-path="url(#clip22)"><text font-family="Calibri,Calibri_MSFontService,sans-serif" font-weight="400" font-size="16" transform="translate(809.866 652)">no</text></g><g clip-path="url(#clip23)"><text font-family="Calibri,Calibri_MSFontService,sans-serif" font-weight="400" font-size="16" transform="translate(889.917 652)">no</text></g><g clip-path="url(#clip24)"><text font-family="Calibri,Calibri_MSFontService,sans-serif" font-weight="400" font-size="16" transform="translate(994.134 652)">48</text></g><g clip-path="url(#clip25)"><text font-family="Calibri,Calibri_MSFontService,sans-serif" font-weight="400" font-size="16" transform="translate(1095.33 652)">3</text></g><g clip-path="url(#clip26)"><text font-family="Calibri,Calibri_MSFontService,sans-serif" font-weight="400" font-size="16" transform="translate(601.431 688)">TG</text></g><text font-family="Calibri,Calibri_MSFontService,sans-serif" font-weight="400" font-size="16" transform="translate(618.971 688)">(12:0_16:0_18:1<tspan font-size="16" x="107.333" y="0">)</tspan></text><g clip-path="url(#clip27)"><text font-family="Calibri,Calibri_MSFontService,sans-serif" font-weight="400" font-size="16" transform="translate(809.866 688)">no</text></g><g clip-path="url(#clip28)"><text font-family="Calibri,Calibri_MSFontService,sans-serif" font-weight="400" font-size="16" transform="translate(889.917 688)">no</text></g><g clip-path="url(#clip29)"><text font-family="Calibri,Calibri_MSFontService,sans-serif" font-weight="400" font-size="16" transform="translate(994.134 688)">46</text></g><g clip-path="url(#clip30)"><text font-family="Calibri,Calibri_MSFontService,sans-serif" font-weight="400" font-size="16" transform="translate(1095.33 688)">1</text></g><path d="M596.739 76 716.374 76 716.374 103.864 596.739 103.864Z" fill="#67AEA2" fill-rule="evenodd"/><path d="M716.374 76 1240.17 76 1240.17 103.864 716.374 103.864Z" fill="#67AEA2" fill-rule="evenodd"/><path d="M596.739 103.864 716.374 103.864 716.374 155.429 596.739 155.429Z" fill="#D3E3E0" fill-rule="evenodd"/><path d="M716.374 103.864 1240.17 103.864 1240.17 155.429 716.374 155.429Z" fill="#D3E3E0" fill-rule="evenodd"/><path d="M596.739 155.429 716.374 155.429 716.374 260.42 596.739 260.42Z" fill="#EBF2F0" fill-rule="evenodd"/><path d="M716.374 155.429 1240.17 155.429 1240.17 260.42 716.374 260.42Z" fill="#EBF2F0" fill-rule="evenodd"/><path d="M596.739 260.42 716.374 260.42 716.374 365.412 596.739 365.412Z" fill="#D3E3E0" fill-rule="evenodd"/><path d="M716.374 260.42 1240.17 260.42 1240.17 365.412 716.374 365.412Z" fill="#D3E3E0" fill-rule="evenodd"/><path d="M716.374 75.3333 716.374 366.079" stroke="#FFFFFF" stroke-width="1.33333" stroke-linejoin="round" stroke-miterlimit="10" fill="none" fill-rule="evenodd"/><path d="M596.073 103.864 1240.83 103.864" stroke="#FFFFFF" stroke-width="4" stroke-linejoin="round" stroke-miterlimit="10" fill="none" fill-rule="evenodd"/><path d="M596.073 155.429 1240.83 155.429" stroke="#FFFFFF" stroke-width="1.33333" stroke-linejoin="round" stroke-miterlimit="10" fill="none" fill-rule="evenodd"/><path d="M596.073 260.42 1240.83 260.42" stroke="#FFFFFF" stroke-width="1.33333" stroke-linejoin="round" stroke-miterlimit="10" fill="none" fill-rule="evenodd"/><path d="M596.739 75.3333 596.739 366.079" stroke="#FFFFFF" stroke-width="1.33333" stroke-linejoin="round" stroke-miterlimit="10" fill="none" fill-rule="evenodd"/><path d="M1240.17 75.3333 1240.17 366.079" stroke="#FFFFFF" stroke-width="1.33333" stroke-linejoin="round" stroke-miterlimit="10" fill="none" fill-rule="evenodd"/><path d="M596.073 76 1240.83 76" stroke="#FFFFFF" stroke-width="1.33333" stroke-linejoin="round" stroke-miterlimit="10" fill="none" fill-rule="evenodd"/><path d="M596.073 365.412 1240.83 365.412" stroke="#FFFFFF" stroke-width="1.33333" stroke-linejoin="round" stroke-miterlimit="10" fill="none" fill-rule="evenodd"/><g clip-path="url(#clip31)"><text fill="#FFFFFF" font-family="Calibri,Calibri_MSFontService,sans-serif" font-weight="700" font-size="16" transform="translate(605.285 95)">Lipid ID</text></g><g clip-path="url(#clip32)"><text fill="#FFFFFF" font-family="Calibri,Calibri_MSFontService,sans-serif" font-weight="700" font-size="16" transform="translate(724.919 95)">Molecular Lipid </text></g><g clip-path="url(#clip33)"><text font-family="Calibri,Calibri_MSFontService,sans-serif" font-weight="400" font-size="16" transform="translate(605.285 123)">posLip71</text></g><g clip-path="url(#clip34)"><text font-family="Calibri,Calibri_MSFontService,sans-serif" font-weight="400" font-size="16" transform="translate(724.919 123)">1_OxTG(16:0_18:1_18:3(OH))+NH4 | 1_OxTG(16:0_18:1_18:2(</text></g><text font-family="Calibri,Calibri_MSFontService,sans-serif" font-weight="400" font-size="16" transform="translate(1133.31 123)">Ke<tspan font-size="16" x="16.0466" y="0">))+NH4 | </tspan></text><g clip-path="url(#clip35)"><text font-family="Calibri,Calibri_MSFontService,sans-serif" font-weight="400" font-size="16" transform="translate(724.919 142)">1_OxTG(18:1_18:1_16:1(CHO))+NH4 | 1_OxTG(18:1_18:1_16:1(</text></g><text font-family="Calibri,Calibri_MSFontService,sans-serif" font-weight="400" font-size="16" transform="translate(1141.81 142)">Ke<tspan font-size="16" x="16.0466" y="0">))+NH4</tspan></text><g clip-path="url(#clip36)"><text font-family="Calibri,Calibri_MSFontService,sans-serif" font-weight="400" font-size="16" transform="translate(605.285 175)">posLip132</text></g><g clip-path="url(#clip37)"><text font-family="Calibri,Calibri_MSFontService,sans-serif" font-weight="400" font-size="16" transform="translate(724.919 175)">1_plasmanyl</text></g><text font-family="Calibri,Calibri_MSFontService,sans-serif" font-weight="400" font-size="16" transform="translate(806.453 175)">-<tspan font-size="16" x="4.83331" y="0">TG(O</tspan><tspan font-size="16" x="37.8734" y="0">-</tspan><tspan font-size="16" x="42.7067" y="0">16:0_16:0_18:1)+NH4 | 2_plasmanyl</tspan>-<tspan font-size="16" x="287.573" y="0">TG(O</tspan><tspan font-size="16" x="320.613" y="0">-</tspan></text><g clip-path="url(#clip38)"><text font-family="Calibri,Calibri_MSFontService,sans-serif" font-weight="400" font-size="16" transform="translate(724.919 194)">16:0_16:0_18:1)+NH4 | 2_plasmanyl</text></g><text font-family="Calibri,Calibri_MSFontService,sans-serif" font-weight="400" font-size="16" transform="translate(964.953 194)">-<tspan font-size="16" x="4.83337" y="0">TG(O</tspan><tspan font-size="16" x="37.8734" y="0">-</tspan><tspan font-size="16" x="42.7067" y="0">18:1_16:0_16:0)+NH4 | </tspan></text><g clip-path="url(#clip39)"><text font-family="Calibri,Calibri_MSFontService,sans-serif" font-weight="400" font-size="16" transform="translate(724.919 213)">2_plasmenyl</text></g><text font-family="Calibri,Calibri_MSFontService,sans-serif" font-weight="400" font-size="16" transform="translate(806.786 213)">-<tspan font-size="16" x="4.83337" y="0">TG(P</tspan><tspan font-size="16" x="35.54" y="0">-</tspan><tspan font-size="16" x="40.3734" y="0">18:0_16:0_16:0)+NH4 | 1_plasmanyl</tspan>-<tspan font-size="16" x="285.24" y="0">TG(O</tspan><tspan font-size="16" x="318.28" y="0">-</tspan></text><g clip-path="url(#clip40)"><text font-family="Calibri,Calibri_MSFontService,sans-serif" font-weight="400" font-size="16" transform="translate(724.919 233)">18:0_16:0_16:1)+NH4 | 1_plasmanyl</text></g><text font-family="Calibri,Calibri_MSFontService,sans-serif" font-weight="400" font-size="16" transform="translate(964.953 233)">-<tspan font-size="16" x="4.83337" y="0">TG(O</tspan><tspan font-size="16" x="37.8734" y="0">-</tspan><tspan font-size="16" x="42.7067" y="0">18:1_16:0_16:0)+NH4 | </tspan></text><g clip-path="url(#clip41)"><text font-family="Calibri,Calibri_MSFontService,sans-serif" font-weight="400" font-size="16" transform="translate(724.919 252)">1_plasmenyl</text></g><text font-family="Calibri,Calibri_MSFontService,sans-serif" font-weight="400" font-size="16" transform="translate(806.786 252)">-<tspan font-size="16" x="4.83337" y="0">TG(P</tspan><tspan font-size="16" x="35.54" y="0">-</tspan><tspan font-size="16" x="40.3734" y="0">18:0_16:0_16:0)+NH4</tspan></text><g clip-path="url(#clip42)"><text font-family="Calibri,Calibri_MSFontService,sans-serif" font-weight="400" font-size="16" transform="translate(605.285 280)">posLip209</text></g><g clip-path="url(#clip43)"><text font-family="Calibri,Calibri_MSFontService,sans-serif" font-weight="400" font-size="16" transform="translate(724.919 280)">1_TG(10:0_16:0_18:2)+NH4 | 1_TG(12:0_14:0_18:2)+NH4 | </text></g><g clip-path="url(#clip44)"><text font-family="Calibri,Calibri_MSFontService,sans-serif" font-weight="400" font-size="16" transform="translate(724.919 299)">1_TG(18:0_18:2_8:0)+NH4 | 1_TG(14:1_14:1_16:0)+NH4 | </text></g><g clip-path="url(#clip45)"><text font-family="Calibri,Calibri_MSFontService,sans-serif" font-weight="400" font-size="16" transform="translate(724.919 318)">1_TG(12:0_14:1_18:1)+NH4 | 1_TG(14:0_14:1_16:1)+NH4 | </text></g><g clip-path="url(#clip46)"><text font-family="Calibri,Calibri_MSFontService,sans-serif" font-weight="400" font-size="16" transform="translate(724.919 338)">1_TG(10:0_16:1_18:1)+NH4 | 1_TG(12:0_16:1_16:1)+NH4 | </text></g><g clip-path="url(#clip47)"><text font-family="Calibri,Calibri_MSFontService,sans-serif" font-weight="400" font-size="16" transform="translate(724.919 357)">1_TG(18:1_18:1_8:0)+NH4</text></g><path d="M935.75 377.5 935.75 379.594 902.25 379.594 902.25 377.5ZM935.75 381.688 935.75 385.875 902.25 385.875 902.25 381.688ZM935.75 387.969 935.75 438 952.5 438 919 471.5 885.5 438 902.25 438 902.25 387.969Z" stroke="#000000" stroke-width="1.33333" stroke-miterlimit="8" fill="none" fill-rule="evenodd"/></g></svg>