<svg width="1280" height="720" xmlns="http://www.w3.org/2000/svg" xmlns:xlink="http://www.w3.org/1999/xlink" overflow="hidden"><defs><clipPath id="clip0"><rect x="0" y="0" width="1280" height="720"/></clipPath></defs><g clip-path="url(#clip0)"><rect x="0" y="0" width="1280" height="720" fill="#FFFFFF"/><path d="M16.8945 16.5466 16.8945 703.453 1263.11 703.453 1263.11 16.5466ZM0 0 1280 0 1280 720 0 720Z" fill="#E8E2E3" fill-rule="evenodd"/><rect x="0" y="0" width="1280" height="720" fill="#FFFFFF"/><path d="M76 76 557 76 557 653 315.641 571.487 76 653 76 76Z" fill="#E8E2E3" fill-rule="evenodd"/><text fill="#332441" font-family="Bembo,Bembo_MSFontService,sans-serif" font-weight="400" font-size="43" transform="translate(180.821 220)">Introduction<tspan font-size="24" x="-17.2775" y="112">Integrating multiple data sources </tspan><tspan font-size="24" x="-36.3575" y="143">improves interpretation compared to </tspan><tspan font-size="24" x="15.8358" y="175">analyzing just one source.</tspan></text><rect x="0" y="0" width="12.1196" height="12.1196" stroke="#332441" stroke-width="1.66667" stroke-miterlimit="8" fill="none" transform="matrix(-0.720314 0.693648 0.693648 0.720314 316.615 264.542)"/><path d="M325 273 361.969 273" stroke="#332441" stroke-width="1.66667" stroke-miterlimit="8" fill="none" fill-rule="evenodd"/><path d="M271 273 307.969 273" stroke="#332441" stroke-width="1.66667" stroke-miterlimit="8" fill="none" fill-rule="evenodd"/><path d="M777 335C777 308.49 838.785 287 915 287 991.215 287 1053 308.49 1053 335 1053 361.51 991.215 383 915 383 838.785 383 777 361.51 777 335Z" fill="#C6DBD7" fill-rule="evenodd" fill-opacity="0.4"/><path d="M888.5 540 902 540 902 522.5 929 522.5 929 540 942.5 540 915.5 557.5Z" stroke="#FFFFFF" stroke-width="1.33333" stroke-miterlimit="8" fill="#B8D3CE" fill-rule="evenodd"/><text font-family="Bembo,Bembo_MSFontService,sans-serif" font-weight="400" font-size="19" transform="translate(843.306 578)">MULTIPLE DATA <tspan font-size="19" x="-41.9333" y="19">SOURCES INTEGRATION</tspan></text><path d="M877.5 439.5C877.5 412.99 899.214 391.5 926 391.5 952.786 391.5 974.5 412.99 974.5 439.5 974.5 466.01 952.786 487.5 926 487.5 899.214 487.5 877.5 466.01 877.5 439.5Z" stroke="#FFFFFF" stroke-width="1.33333" stroke-miterlimit="8" fill="#F1B6DA" fill-rule="evenodd"/><text fill="#FFFFFF" font-family="Bembo,Bembo_MSFontService,sans-serif" font-weight="400" font-size="11" transform="translate(896.968 441)">INTRINSIC</text><path d="M808.5 367C808.5 340.214 830.214 318.5 857 318.5 883.786 318.5 905.5 340.214 905.5 367 905.5 393.786 883.786 415.5 857 415.5 830.214 415.5 808.5 393.786 808.5 367Z" stroke="#FFFFFF" stroke-width="1.33333" stroke-miterlimit="8" fill="#D01C8B" fill-rule="evenodd"/><text fill="#FFFFFF" font-family="Bembo,Bembo_MSFontService,sans-serif" font-weight="400" font-size="11" transform="translate(838.913 364)">MULTI <tspan font-size="11" x="-0.113281" y="11">OMICS</tspan></text><path d="M907.5 343.5C907.5 316.99 928.99 295.5 955.5 295.5 982.01 295.5 1003.5 316.99 1003.5 343.5 1003.5 370.01 982.01 391.5 955.5 391.5 928.99 391.5 907.5 370.01 907.5 343.5Z" stroke="#FFFFFF" stroke-width="1.33333" stroke-miterlimit="8" fill="#B8E186" fill-rule="evenodd"/><text fill="#FFFFFF" font-family="Bembo,Bembo_MSFontService,sans-serif" font-weight="400" font-size="11" transform="translate(925.483 346)">EXTRINSIC</text><path d="M765.96 343.85C754.43 311.036 811.588 280.696 893.624 276.084 975.661 271.472 1051.51 294.335 1063.04 327.15 1064.99 332.689 1064.99 338.311 1063.04 343.85L951.635 502.588C948.753 510.791 929.79 516.507 909.281 515.354 892.714 514.423 879.693 509.214 877.365 502.588ZM776.5 335.5C776.5 362.01 838.285 383.5 914.5 383.5 990.715 383.5 1052.5 362.01 1052.5 335.5 1052.5 308.99 990.715 287.5 914.5 287.5 838.285 287.5 776.5 308.99 776.5 335.5Z" stroke="#67AEA2" stroke-width="0.666667" stroke-miterlimit="8" fill="#FFFFFF" fill-rule="evenodd" fill-opacity="0.4"/><path d="M17.9653 38.2535C15.6497 24.8656 27.5727 12.5363 44.5962 10.7152 51.4943 9.9773 58.5078 11.0804 64.5144 13.848 70.8791 4.41261 85.7521 0.826667 97.7342 5.83861 99.8294 6.71501 101.752 7.82579 103.443 9.13634 108.4 1.31508 120.474-1.8625 130.412 2.03901 133.162 3.11885 135.561 4.68057 137.425 6.60418 145.415-0.792239 159.533-1.70588 168.959 4.5635 172.921 7.1985 175.591 10.8329 176.512 14.8435 189.603 17.6528 197.325 28.2938 193.761 38.611 193.461 39.4783 193.085 40.3282 192.636 41.1544 203.135 51.9047 200.564 67.313 186.895 75.5699 182.64 78.1402 177.614 79.8043 172.302 80.4016 172.184 91.9673 160.158 101.268 145.441 101.175 140.524 101.144 135.714 100.045 131.543 97.9983 126.565 110.965 109.202 118.294 92.7612 114.368 85.871 112.722 79.9179 109.243 75.917 104.523 59.0838 112.508 37.235 108.213 27.1162 94.9279 26.9887 94.7605 26.8634 94.592 26.7403 94.4225 15.7237 95.4367 5.74482 89.2537 4.4518 80.6124 3.7626 76.0064 5.69572 71.3962 9.73599 68.0104 0.197236 63.5935-3.00701 53.8987 2.5791 46.3565 5.80181 42.0053 11.454 39.1288 17.7977 38.6116Z" fill="#D01C8B" fill-rule="evenodd" transform="matrix(-1 0 0 1 839.5 170.5)"/><path d="M31.0863 160.189C31.0863 161.953 29.6562 163.383 27.892 163.383 26.1278 163.383 24.6976 161.953 24.6976 160.189 24.6976 158.425 26.1278 156.995 27.892 156.995 29.6562 156.995 31.0863 158.425 31.0863 160.189Z" fill="#D01C8B" fill-rule="evenodd" transform="matrix(-1 0 0 1 839.5 170.5)"/><path d="M44.5352 145.484C44.5352 149.012 41.6747 151.873 38.1462 151.873 34.6177 151.873 31.7573 149.012 31.7573 145.484 31.7573 141.955 34.6177 139.095 38.1462 139.095 41.6747 139.095 44.5352 141.955 44.5352 145.484Z" fill="#D01C8B" fill-rule="evenodd" transform="matrix(-1 0 0 1 839.5 170.5)"/><path d="M61.6386 125.538C61.6386 130.831 57.348 135.121 52.0553 135.121 46.7626 135.121 42.472 130.831 42.472 125.538 42.472 120.245 46.7626 115.955 52.0553 115.955 57.348 115.955 61.6386 120.245 61.6386 125.538Z" fill="#D01C8B" fill-rule="evenodd" transform="matrix(-1 0 0 1 839.5 170.5)"/><path d="M17.9653 38.2535C15.6497 24.8656 27.5727 12.5363 44.5962 10.7152 51.4943 9.9773 58.5078 11.0804 64.5144 13.848 70.8791 4.41261 85.7521 0.826667 97.7342 5.83861 99.8294 6.71501 101.752 7.82579 103.443 9.13634 108.4 1.31508 120.474-1.8625 130.412 2.03901 133.162 3.11885 135.561 4.68057 137.425 6.60418 145.415-0.792239 159.533-1.70588 168.959 4.5635 172.921 7.1985 175.591 10.8329 176.512 14.8435 189.603 17.6528 197.325 28.2938 193.761 38.611 193.461 39.4783 193.085 40.3282 192.636 41.1544 203.135 51.9047 200.564 67.313 186.895 75.5699 182.64 78.1402 177.614 79.8043 172.302 80.4016 172.184 91.9673 160.158 101.268 145.441 101.175 140.524 101.144 135.714 100.045 131.543 97.9983 126.565 110.965 109.202 118.294 92.7612 114.368 85.871 112.722 79.9179 109.243 75.917 104.523 59.0838 112.508 37.235 108.213 27.1162 94.9279 26.9887 94.7605 26.8634 94.592 26.7403 94.4225 15.7237 95.4367 5.74482 89.2537 4.4518 80.6124 3.7626 76.0064 5.69572 71.3962 9.73599 68.0104 0.197236 63.5935-3.00701 53.8987 2.5791 46.3565 5.80181 42.0053 11.454 39.1288 17.7977 38.6116Z" stroke="#4A7F76" stroke-width="1.33333" stroke-miterlimit="8" fill="none" fill-rule="evenodd" transform="matrix(-1 0 0 1 839.5 170.5)"/><path d="M31.0863 160.189C31.0863 161.953 29.6562 163.383 27.892 163.383 26.1278 163.383 24.6976 161.953 24.6976 160.189 24.6976 158.425 26.1278 156.995 27.892 156.995 29.6562 156.995 31.0863 158.425 31.0863 160.189Z" stroke="#4A7F76" stroke-width="1.33333" stroke-miterlimit="8" fill="none" fill-rule="evenodd" transform="matrix(-1 0 0 1 839.5 170.5)"/><path d="M44.5352 145.484C44.5352 149.012 41.6747 151.873 38.1462 151.873 34.6177 151.873 31.7573 149.012 31.7573 145.484 31.7573 141.955 34.6177 139.095 38.1462 139.095 41.6747 139.095 44.5352 141.955 44.5352 145.484Z" stroke="#4A7F76" stroke-width="1.33333" stroke-miterlimit="8" fill="none" fill-rule="evenodd" transform="matrix(-1 0 0 1 839.5 170.5)"/><path d="M61.6386 125.538C61.6386 130.831 57.348 135.121 52.0553 135.121 46.7626 135.121 42.472 130.831 42.472 125.538 42.472 120.245 46.7626 115.955 52.0553 115.955 57.348 115.955 61.6386 120.245 61.6386 125.538Z" stroke="#4A7F76" stroke-width="1.33333" stroke-miterlimit="8" fill="none" fill-rule="evenodd" transform="matrix(-1 0 0 1 839.5 170.5)"/><path d="M21.6182 69.6841C17.546 69.9349 13.4741 69.1946 9.94948 67.5625M31.9137 92.9024C30.2761 93.4152 28.5596 93.7566 26.8084 93.9179M75.9056 104.059C74.6739 102.606 73.6427 101.053 72.8295 99.427M132.791 92.5084C132.61 94.232 132.198 95.9357 131.563 97.591M157.215 61.1044C166.448 64.639 172.275 72.0288 172.192 80.0997M192.542 40.8729C191.046 43.6212 188.764 46.0592 185.873 47.9957M176.539 14.4442C176.794 15.554 176.911 16.6805 176.891 17.8081M133.947 10.5204C134.816 8.96845 135.967 7.52345 137.364 6.23037M101.992 12.5648C102.347 11.2823 102.902 10.0395 103.647 8.865M64.4907 13.8213C66.6641 14.8227 68.6748 16.028 70.4786 17.4107M19.011 42.0309C18.5365 40.7957 18.1871 39.5329 17.966 38.2544" stroke="#4A7F76" stroke-width="1.33333" stroke-miterlimit="8" fill="none" fill-rule="evenodd" transform="matrix(-1 0 0 1 839.5 170.5)"/><text fill="#FFFFFF" font-family="Bembo,Bembo_MSFontService,sans-serif" font-style="oblique" font-weight="400" font-size="19" transform="translate(692.935 209)">e.g<tspan font-style="normal" font-size="19" x="21.28" y="0">., genomics, </tspan><tspan font-style="normal" font-size="19" x="-0.140015" y="22">metabolomics,</tspan><tspan font-style="normal" font-size="19" x="3.46667" y="45">proteomics… </tspan></text><path d="M1000.07 208.754C997.16 195.366 1012.14 183.036 1033.53 181.215 1042.19 180.477 1051 181.58 1058.55 184.348 1066.54 174.913 1085.23 171.327 1100.28 176.339 1102.91 177.215 1105.33 178.326 1107.45 179.636 1113.68 171.815 1128.85 168.638 1141.33 172.539 1144.79 173.619 1147.8 175.181 1150.14 177.104 1160.18 169.708 1177.92 168.794 1189.76 175.064 1194.74 177.699 1198.09 181.333 1199.25 185.344 1215.69 188.153 1225.4 198.794 1220.92 209.111 1220.54 209.978 1220.07 210.828 1219.5 211.654 1232.69 222.405 1229.47 237.813 1212.29 246.07 1206.95 248.64 1200.63 250.304 1193.96 250.902 1193.81 262.467 1178.7 271.768 1160.21 271.675 1154.04 271.644 1147.99 270.545 1142.75 268.498 1136.5 281.465 1114.69 288.794 1094.03 284.868 1085.38 283.222 1077.9 279.743 1072.87 275.023 1051.73 283.009 1024.28 278.713 1011.57 265.428 1011.41 265.261 1011.25 265.092 1011.09 264.923 997.253 265.937 984.717 259.754 983.093 251.112 982.227 246.506 984.655 241.896 989.731 238.51 977.748 234.094 973.722 224.399 980.74 216.857 984.789 212.505 991.89 209.629 999.859 209.112Z" fill="#B8E186" fill-rule="evenodd"/><path d="M1004.8 314.734C1004.8 316.498 1003.37 317.929 1001.61 317.929 999.846 317.929 998.416 316.498 998.416 314.734 998.416 312.97 999.846 311.54 1001.61 311.54 1003.37 311.54 1004.8 312.97 1004.8 314.734Z" fill="#B8E186" fill-rule="evenodd"/><path d="M1020.36 304.111C1020.36 307.639 1017.5 310.5 1013.97 310.5 1010.44 310.5 1007.58 307.639 1007.58 304.111 1007.58 300.582 1010.44 297.722 1013.97 297.722 1017.5 297.722 1020.36 300.582 1020.36 304.111Z" fill="#B8E186" fill-rule="evenodd"/><path d="M1040.75 289.322C1040.75 294.615 1036.46 298.906 1031.17 298.906 1025.88 298.906 1021.59 294.615 1021.59 289.322 1021.59 284.029 1025.88 279.739 1031.17 279.739 1036.46 279.739 1040.75 284.029 1040.75 289.322Z" fill="#B8E186" fill-rule="evenodd"/><path d="M1000.07 208.754C997.16 195.366 1012.14 183.036 1033.53 181.215 1042.19 180.477 1051 181.58 1058.55 184.348 1066.54 174.913 1085.23 171.327 1100.28 176.339 1102.91 177.215 1105.33 178.326 1107.45 179.636 1113.68 171.815 1128.85 168.638 1141.33 172.539 1144.79 173.619 1147.8 175.181 1150.14 177.104 1160.18 169.708 1177.92 168.794 1189.76 175.064 1194.74 177.699 1198.09 181.333 1199.25 185.344 1215.69 188.153 1225.4 198.794 1220.92 209.111 1220.54 209.978 1220.07 210.828 1219.5 211.654 1232.69 222.405 1229.47 237.813 1212.29 246.07 1206.95 248.64 1200.63 250.304 1193.96 250.902 1193.81 262.467 1178.7 271.768 1160.21 271.675 1154.04 271.644 1147.99 270.545 1142.75 268.498 1136.5 281.465 1114.69 288.794 1094.03 284.868 1085.38 283.222 1077.9 279.743 1072.87 275.023 1051.73 283.009 1024.28 278.713 1011.57 265.428 1011.41 265.261 1011.25 265.092 1011.09 264.923 997.253 265.937 984.717 259.754 983.093 251.112 982.227 246.506 984.655 241.896 989.731 238.51 977.748 234.094 973.722 224.399 980.74 216.857 984.789 212.505 991.89 209.629 999.859 209.112Z" stroke="#4A7F76" stroke-width="1.33333" stroke-miterlimit="8" fill="none" fill-rule="evenodd"/><path d="M1004.8 314.734C1004.8 316.498 1003.37 317.929 1001.61 317.929 999.846 317.929 998.416 316.498 998.416 314.734 998.416 312.97 999.846 311.54 1001.61 311.54 1003.37 311.54 1004.8 312.97 1004.8 314.734Z" stroke="#4A7F76" stroke-width="1.33333" stroke-miterlimit="8" fill="none" fill-rule="evenodd"/><path d="M1020.36 304.111C1020.36 307.639 1017.5 310.5 1013.97 310.5 1010.44 310.5 1007.58 307.639 1007.58 304.111 1007.58 300.582 1010.44 297.722 1013.97 297.722 1017.5 297.722 1020.36 300.582 1020.36 304.111Z" stroke="#4A7F76" stroke-width="1.33333" stroke-miterlimit="8" fill="none" fill-rule="evenodd"/><path d="M1040.75 289.322C1040.75 294.615 1036.46 298.906 1031.17 298.906 1025.88 298.906 1021.59 294.615 1021.59 289.322 1021.59 284.029 1025.88 279.739 1031.17 279.739 1036.46 279.739 1040.75 284.029 1040.75 289.322Z" stroke="#4A7F76" stroke-width="1.33333" stroke-miterlimit="8" fill="none" fill-rule="evenodd"/><path d="M1004.66 240.184C999.543 240.435 994.427 239.695 989.999 238.063M1017.59 263.402C1015.54 263.915 1013.38 264.257 1011.18 264.418M1072.86 274.559C1071.31 273.106 1070.02 271.553 1068.99 269.927M1144.32 263.008C1144.1 264.732 1143.58 266.436 1142.78 268.091M1175.01 231.604C1186.61 235.139 1193.93 242.529 1193.82 250.6M1219.39 211.373C1217.51 214.121 1214.64 216.559 1211.01 218.496M1199.28 184.944C1199.6 186.054 1199.75 187.181 1199.72 188.308M1145.78 181.02C1146.87 179.468 1148.31 178.023 1150.07 176.73M1105.63 183.065C1106.08 181.782 1106.77 180.54 1107.71 179.365M1058.52 184.321C1061.25 185.323 1063.77 186.528 1066.04 187.911M1001.38 212.531C1000.79 211.296 1000.35 210.033 1000.07 208.754" stroke="#4A7F76" stroke-width="1.33333" stroke-miterlimit="8" fill="none" fill-rule="evenodd"/><text fill="#FFFFFF" font-family="Bembo,Bembo_MSFontService,sans-serif" font-weight="400" font-size="19" transform="translate(1022.72 220)">e.g., environmental <tspan font-size="19" x="45.9666" y="22">factors</tspan></text><path d="M17.9653 31.6007C15.6497 20.5411 27.5727 10.3561 44.5962 8.8517 51.4943 8.24212 58.5078 9.15338 64.5144 11.4397 70.8791 3.6452 85.7521 0.682899 97.7342 4.8232 99.8294 5.54718 101.752 6.46478 103.443 7.54741 108.4 1.08637 120.474-1.53858 130.412 1.6844 133.162 2.57644 135.561 3.86656 137.425 5.45562 145.415-0.654458 159.533-1.4092 168.959 3.76985 172.921 5.94659 175.591 8.9489 176.512 12.262 189.603 14.5827 197.325 23.3731 193.761 31.896 193.461 32.6125 193.085 33.3146 192.636 33.9971 203.135 42.8778 200.564 55.6064 186.895 62.4273 182.64 64.5506 177.614 65.9253 172.302 66.4187 172.184 75.973 160.158 83.6562 145.441 83.5795 140.524 83.5539 135.714 82.6456 131.543 80.9551 126.565 91.6667 109.202 97.721 92.7612 94.4777 85.871 93.1185 79.9179 90.2442 75.917 86.3448 59.0838 92.9418 37.235 89.3932 27.1162 78.4187 26.9887 78.2804 26.8634 78.1412 26.7403 78.0012 15.7237 78.839 5.74482 73.7313 4.4518 66.5928 3.7626 62.7879 5.69572 58.9795 9.73599 56.1825 0.197236 52.5337-3.00701 44.525 2.5791 38.2945 5.80181 34.7 11.454 32.3238 17.7977 31.8966Z" fill="#F1B6DA" fill-rule="evenodd" transform="matrix(-1 0 0 1 1219.5 435.5)"/><path d="M242.299 18.0528C242.299 19.5103 241.117 20.6918 239.66 20.6918 238.202 20.6918 237.021 19.5103 237.021 18.0528 237.021 16.5953 238.202 15.4138 239.66 15.4138 241.117 15.4138 242.299 16.5953 242.299 18.0528Z" fill="#F1B6DA" fill-rule="evenodd" transform="matrix(-1 0 0 1 1219.5 435.5)"/><path d="M230.296 21.129C230.296 24.0438 227.933 26.4067 225.018 26.4067 222.104 26.4067 219.741 24.0438 219.741 21.129 219.741 18.2142 222.104 15.8513 225.018 15.8513 227.933 15.8513 230.296 18.2142 230.296 21.129Z" fill="#F1B6DA" fill-rule="evenodd" transform="matrix(-1 0 0 1 1219.5 435.5)"/><path d="M213.128 25.2903C213.128 29.6625 209.584 33.207 205.212 33.207 200.84 33.207 197.295 29.6625 197.295 25.2903 197.295 20.918 200.84 17.3736 205.212 17.3736 209.584 17.3736 213.128 20.918 213.128 25.2903Z" fill="#F1B6DA" fill-rule="evenodd" transform="matrix(-1 0 0 1 1219.5 435.5)"/><path d="M17.9653 31.6007C15.6497 20.5411 27.5727 10.3561 44.5962 8.8517 51.4943 8.24212 58.5078 9.15338 64.5144 11.4397 70.8791 3.6452 85.7521 0.682899 97.7342 4.8232 99.8294 5.54718 101.752 6.46478 103.443 7.54741 108.4 1.08637 120.474-1.53858 130.412 1.6844 133.162 2.57644 135.561 3.86656 137.425 5.45562 145.415-0.654458 159.533-1.4092 168.959 3.76985 172.921 5.94659 175.591 8.9489 176.512 12.262 189.603 14.5827 197.325 23.3731 193.761 31.896 193.461 32.6125 193.085 33.3146 192.636 33.9971 203.135 42.8778 200.564 55.6064 186.895 62.4273 182.64 64.5506 177.614 65.9253 172.302 66.4187 172.184 75.973 160.158 83.6562 145.441 83.5795 140.524 83.5539 135.714 82.6456 131.543 80.9551 126.565 91.6667 109.202 97.721 92.7612 94.4777 85.871 93.1185 79.9179 90.2442 75.917 86.3448 59.0838 92.9418 37.235 89.3932 27.1162 78.4187 26.9887 78.2804 26.8634 78.1412 26.7403 78.0012 15.7237 78.839 5.74482 73.7313 4.4518 66.5928 3.7626 62.7879 5.69572 58.9795 9.73599 56.1825 0.197236 52.5337-3.00701 44.525 2.5791 38.2945 5.80181 34.7 11.454 32.3238 17.7977 31.8966Z" stroke="#4A7F76" stroke-width="1.33333" stroke-miterlimit="8" fill="none" fill-rule="evenodd" transform="matrix(-1 0 0 1 1219.5 435.5)"/><path d="M242.299 18.0528C242.299 19.5103 241.117 20.6918 239.66 20.6918 238.202 20.6918 237.021 19.5103 237.021 18.0528 237.021 16.5953 238.202 15.4138 239.66 15.4138 241.117 15.4138 242.299 16.5953 242.299 18.0528Z" stroke="#4A7F76" stroke-width="1.33333" stroke-miterlimit="8" fill="none" fill-rule="evenodd" transform="matrix(-1 0 0 1 1219.5 435.5)"/><path d="M230.296 21.129C230.296 24.0438 227.933 26.4067 225.018 26.4067 222.104 26.4067 219.741 24.0438 219.741 21.129 219.741 18.2142 222.104 15.8513 225.018 15.8513 227.933 15.8513 230.296 18.2142 230.296 21.129Z" stroke="#4A7F76" stroke-width="1.33333" stroke-miterlimit="8" fill="none" fill-rule="evenodd" transform="matrix(-1 0 0 1 1219.5 435.5)"/><path d="M213.128 25.2903C213.128 29.6625 209.584 33.207 205.212 33.207 200.84 33.207 197.295 29.6625 197.295 25.2903 197.295 20.918 200.84 17.3736 205.212 17.3736 209.584 17.3736 213.128 20.918 213.128 25.2903Z" stroke="#4A7F76" stroke-width="1.33333" stroke-miterlimit="8" fill="none" fill-rule="evenodd" transform="matrix(-1 0 0 1 1219.5 435.5)"/><path d="M21.6182 57.5652C17.546 57.7723 13.4741 57.1607 9.94948 55.8125M31.9137 76.7455C30.2761 77.1691 28.5596 77.4511 26.8084 77.5843M75.9056 85.9618C74.6739 84.7614 73.6427 83.4786 72.8295 82.1354M132.791 76.42C132.61 77.8439 132.198 79.2512 131.563 80.6187M157.215 50.4775C166.448 53.3974 172.275 59.502 172.192 66.1693M192.542 33.7646C191.046 36.0349 188.764 38.0489 185.873 39.6486M176.539 11.9322C176.794 12.849 176.911 13.7796 176.891 14.7111M133.947 8.69074C134.816 7.40872 135.967 6.21502 137.364 5.14683M101.992 10.3796C102.347 9.32017 102.902 8.2935 103.647 7.32326M64.4907 11.4176C66.6641 12.2448 68.6748 13.2405 70.4786 14.3828M19.011 34.7212C18.5365 33.7008 18.1871 32.6576 17.966 31.6015" stroke="#4A7F76" stroke-width="1.33333" stroke-miterlimit="8" fill="none" fill-rule="evenodd" transform="matrix(-1 0 0 1 1219.5 435.5)"/><text fill="#FFFFFF" font-family="Bembo,Bembo_MSFontService,sans-serif" font-weight="400" font-size="19" transform="translate(1078.49 476)">e.g., inherent <tspan font-size="19" x="-2.97998" y="22">characteristics</tspan></text></g></svg>